/* XPM */
static const char * activate_xpm[] = {
"32 32 522 2",
"   c None",
".  c #0342CA",
"+  c #0950D5",
"@  c #0235A5",
"#  c #0040C3",
"$  c #50ACFA",
"%  c #BBE8FF",
"&  c #85C1FC",
"*  c #01246F",
"=  c #0F4093",
"-  c #53A5F9",
";  c #1B5EC5",
">  c #0041B8",
",  c #1477DD",
"'  c #ABDCFF",
")  c #C4EAFF",
"!  c #72B4FA",
"~  c #3377DE",
"{  c #134FBD",
"]  c #4B91E6",
"^  c #B6E9FF",
"/  c #A3E1FF",
"(  c #4998FA",
"_  c #307DE5",
":  c #3D77CF",
"<  c #035FD4",
"[  c #2F8DEA",
"}  c #97D1FE",
"|  c #B4DFFF",
"1  c #B7E5FF",
"2  c #B2E7FF",
"3  c #A6E1FF",
"4  c #A6DDFF",
"5  c #A5DAFF",
"6  c #A7DCFF",
"7  c #75BDFD",
"8  c #012F8A",
"9  c #1266E2",
"0  c #ADE5FF",
"a  c #C4EDFF",
"b  c #81BEFF",
"c  c #5AA0F3",
"d  c #88CBFF",
"e  c #ADDFFF",
"f  c #B2DFFF",
"g  c #A1DBFF",
"h  c #7DC5FE",
"i  c #61AFF5",
"j  c #58A7F0",
"k  c #5AACF4",
"l  c #68B7FA",
"m  c #7FC9FF",
"n  c #92D7FF",
"o  c #6ABDFF",
"p  c #1559C1",
"q  c #0136AE",
"r  c #0561D8",
"s  c #4DA4F3",
"t  c #ABDDFF",
"u  c #B5E2FF",
"v  c #B2E2FF",
"w  c #ABDCFE",
"x  c #A9DCFF",
"y  c #76C1FD",
"z  c #2C7AD3",
"A  c #134EAB",
"B  c #113F98",
"C  c #0F3C95",
"D  c #113E96",
"E  c #1347A1",
"F  c #175BB8",
"G  c #3183DB",
"H  c #63BBFF",
"I  c #78CCFF",
"J  c #3B90F4",
"K  c #4EA2F4",
"L  c #53B3FF",
"M  c #0356D0",
"N  c #0055C7",
"O  c #0055C5",
"P  c #3E9CF3",
"Q  c #A0D6FE",
"R  c #A2D8FF",
"S  c #7BC6FF",
"T  c #1465C7",
"U  c #173E94",
"V  c #1D4395",
"W  c #1D4599",
"X  c #1E4699",
"Y  c #1D4497",
"Z  c #1D4294",
"`  c #174095",
" . c #1159BC",
".. c #40A0F2",
"+. c #7CCDFF",
"@. c #7FCBFF",
"#. c #5FB9FF",
"$. c #038DFF",
"%. c #0046C2",
"&. c #002372",
"*. c #005ACC",
"=. c #0050BA",
"-. c #2081E3",
";. c #99D5FF",
">. c #9BD4FE",
",. c #90D1FF",
"'. c #2B7FDB",
"). c #1D4CA3",
"!. c #2455AA",
"~. c #2557AF",
"{. c #2456AC",
"]. c #2354A9",
"^. c #2252A7",
"/. c #2251A6",
"(. c #224DA2",
"_. c #1954AF",
":. c #2E89E4",
"<. c #6CC1FF",
"[. c #40A9FF",
"}. c #007BFA",
"|. c #001F60",
"1. c #0043AF",
"2. c #0051C0",
"3. c #409CF1",
"4. c #9AD6FF",
"5. c #98D4FF",
"6. c #60B5FA",
"7. c #1E62C2",
"8. c #265BB8",
"9. c #1947A1",
"0. c #123781",
"a. c #11357E",
"b. c #164096",
"c. c #1F53B0",
"d. c #2760BD",
"e. c #2962BB",
"f. c #275EB4",
"g. c #275CB1",
"h. c #2159B3",
"i. c #2B85E2",
"j. c #1B98FF",
"k. c #0887FD",
"l. c #012D80",
"m. c #02349D",
"n. c #0762D8",
"o. c #60B7FC",
"p. c #96D3FF",
"q. c #8FD1FF",
"r. c #409EF6",
"s. c #1850AD",
"t. c #061946",
"u. c #062055",
"v. c #19499F",
"w. c #2C6CCC",
"x. c #2D6CC4",
"y. c #2C69C1",
"z. c #2D68BF",
"A. c #2966C0",
"B. c #1884ED",
"C. c #1196FF",
"D. c #0D81F9",
"E. c #055AD3",
"F. c #60BBFF",
"G. c #73C0FF",
"H. c #7AC3FE",
"I. c #89CDFE",
"J. c #8BCDFE",
"K. c #88CFFF",
"L. c #2F8AE5",
"M. c #000B26",
"N. c #0D2D68",
"O. c #2C70D0",
"P. c #3379D4",
"Q. c #3175CF",
"R. c #3273CD",
"S. c #2E78D4",
"T. c #1C91F8",
"U. c #1699FF",
"V. c #0D72E4",
"W. c #043DA4",
"X. c #035ED0",
"Y. c #72C4FF",
"Z. c #8ACDFF",
"`. c #87CBFE",
" + c #86CAFE",
".+ c #8BD1FF",
"++ c #4497E4",
"@+ c #09214B",
"#+ c #2F78D9",
"$+ c #3885E0",
"%+ c #3682DC",
"&+ c #3880D9",
"*+ c #3089E7",
"=+ c #1E97FF",
"-+ c #1B9AFF",
";+ c #1798FF",
">+ c #118BFF",
",+ c #012267",
"'+ c #0160D5",
")+ c #62BAFF",
"!+ c #8CD1FF",
"~+ c #8ACFFF",
"{+ c #88CCFF",
"]+ c #83C9FE",
"^+ c #88CDFF",
"/+ c #65B9FD",
"(+ c #0F3063",
"_+ c #3B91F4",
":+ c #3B8EEA",
"<+ c #3B8DE9",
"[+ c #3A8DEA",
"}+ c #2899FC",
"|+ c #219AFF",
"1+ c #1E98FF",
"2+ c #1C9FFF",
"3+ c #0B5ECC",
"4+ c #005ACF",
"5+ c #2085E6",
"6+ c #3998ED",
"7+ c #43A0F1",
"8+ c #83CAFF",
"9+ c #83CAFE",
"0+ c #7DCDFF",
"a+ c #1D558C",
"b+ c #296CBF",
"c+ c #429EFB",
"d+ c #4098F5",
"e+ c #319EFB",
"f+ c #279DFF",
"g+ c #249AFE",
"h+ c #1990F4",
"i+ c #0F78EE",
"j+ c #0053C3",
"k+ c #0054BE",
"l+ c #0052BE",
"m+ c #0050BD",
"n+ c #0E6FD5",
"o+ c #72C3FF",
"p+ c #84CAFE",
"q+ c #85CEFF",
"r+ c #5AADF0",
"s+ c #419FFE",
"t+ c #45A2FF",
"u+ c #44A0FD",
"v+ c #3AA2FE",
"w+ c #31A3FF",
"x+ c #2B9EFD",
"y+ c #096AD7",
"z+ c #003192",
"A+ c #0051C4",
"B+ c #005BC4",
"C+ c #0058C1",
"D+ c #0056BD",
"E+ c #0053BE",
"F+ c #429EF0",
"G+ c #83CBFF",
"H+ c #82C8FE",
"I+ c #83D0FF",
"J+ c #4087C4",
"K+ c #307ACE",
"L+ c #46A7FF",
"M+ c #43A0FD",
"N+ c #3FA6FE",
"O+ c #39A7FF",
"P+ c #34A6FF",
"Q+ c #0C4FB3",
"R+ c #003394",
"S+ c #0041A8",
"T+ c #0046B3",
"U+ c #0152C0",
"V+ c #0052BB",
"W+ c #0F6BCF",
"X+ c #6FC0FD",
"Y+ c #82D1FF",
"Z+ c #3E7EB4",
"`+ c #21558D",
" @ c #46A9FF",
".@ c #44A1FE",
"+@ c #47ACFE",
"@@ c #42ABFF",
"#@ c #3DACFF",
"$@ c #1655AF",
"%@ c #012977",
"&@ c #0053C4",
"*@ c #116ED1",
"=@ c #6BBDFD",
"-@ c #84CBFF",
";@ c #82C9FE",
">@ c #87D3FF",
",@ c #5395C8",
"'@ c #47AAFF",
")@ c #50AEFE",
"!@ c #51B2FE",
"~@ c #4AAFFE",
"{@ c #45ACFF",
"]@ c #3CA8FF",
"^@ c #1B66C9",
"/@ c #1360CB",
"(@ c #65BCFC",
"_@ c #82CAFF",
":@ c #81C8FE",
"<@ c #84C9FE",
"[@ c #86CBFE",
"}@ c #8ED4FF",
"|@ c #6EBDF7",
"1@ c #396C90",
"2@ c #285B91",
"3@ c #5EBBFF",
"4@ c #60BAFE",
"5@ c #5AB6FE",
"6@ c #52B2FE",
"7@ c #4DB1FE",
"8@ c #46AEFF",
"9@ c #40B2FF",
"0@ c #2276E1",
"a@ c #53A4F3",
"b@ c #83CEFF",
"c@ c #80C8FE",
"d@ c #88CBFE",
"e@ c #79C4FE",
"f@ c #77C6FF",
"g@ c #7DCEFF",
"h@ c #73C0F9",
"i@ c #4E8BBC",
"j@ c #5BAFFF",
"k@ c #68BAFB",
"l@ c #6CC0FE",
"m@ c #66BCFE",
"n@ c #60B9FE",
"o@ c #5BB7FF",
"p@ c #53B3FE",
"q@ c #4CB1FF",
"r@ c #48B5FF",
"s@ c #2A85E7",
"t@ c #0346B0",
"u@ c #3F9DEE",
"v@ c #7AC8FF",
"w@ c #77C4FE",
"x@ c #76C4FE",
"y@ c #78C7FF",
"z@ c #74C4FF",
"A@ c #78C6FF",
"B@ c #7BC7FF",
"C@ c #7EC7FE",
"D@ c #86CDFF",
"E@ c #8BD4FF",
"F@ c #87CCFF",
"G@ c #83C8FC",
"H@ c #81C7FC",
"I@ c #7FC7FD",
"J@ c #7AC7FF",
"K@ c #72C2FE",
"L@ c #6DBFFE",
"M@ c #69BFFF",
"N@ c #62BBFE",
"O@ c #1E78D5",
"P@ c #1B75D4",
"Q@ c #40A7F7",
"R@ c #2775D2",
"S@ c #0151C1",
"T@ c #0259C0",
"U@ c #419CEC",
"V@ c #69C1FF",
"W@ c #6EC4FF",
"X@ c #5BB0F5",
"Y@ c #2176D1",
"Z@ c #3788DB",
"`@ c #7AC2F9",
" # c #91D3FF",
".# c #8ECFFE",
"+# c #90CFFE",
"@# c #92D0FE",
"## c #93D2FF",
"$# c #93D1FE",
"%# c #91D0FE",
"&# c #8DCEFE",
"*# c #89CCFE",
"=# c #7CC7FE",
"-# c #77C5FF",
";# c #3188DD",
"># c #0051BB",
",# c #0051BA",
"'# c #0561D0",
")# c #0C4192",
"!# c #025DD2",
"~# c #0053BB",
"{# c #065CC2",
"]# c #4BA2ED",
"^# c #4297E5",
"/# c #0A5FC3",
"(# c #004FBA",
"_# c #156AC9",
":# c #60A8E8",
"<# c #98D3FE",
"[# c #9DD5FF",
"}# c #9ED6FE",
"|# c #9DD6FE",
"1# c #99D4FF",
"2# c #94D2FF",
"3# c #8ECFFF",
"4# c #81CAFF",
"5# c #74C2FD",
"6# c #1065C8",
"7# c #0052BC",
"8# c #015BC9",
"9# c #0444A8",
"0# c #0649AC",
"a# c #005AC7",
"b# c #0054BC",
"c# c #0057BE",
"d# c #0056C3",
"e# c #0057C8",
"f# c #035CC6",
"g# c #075FC2",
"h# c #0960C2",
"i# c #1166C5",
"j# c #80BCF0",
"k# c #AEDEFF",
"l# c #AADBFE",
"m# c #A6D9FD",
"n# c #9FD5FD",
"o# c #98D2FC",
"p# c #94D1FD",
"q# c #90D0FF",
"r# c #88CCFE",
"s# c #4590E6",
"t# c #0250C4",
"u# c #0549AE",
"v# c #064EB8",
"w# c #005AC5",
"x# c #0259C9",
"y# c #07439F",
"z# c #052357",
"A# c #0B48A2",
"B# c #146BD2",
"C# c #1B70CB",
"D# c #2173CA",
"E# c #89C1F0",
"F# c #BAE4FF",
"G# c #B6E0FE",
"H# c #B8E2FF",
"I# c #B3DEFE",
"J# c #5DA0DF",
"K# c #448DD7",
"L# c #3B87D4",
"M# c #4490DA",
"N# c #91CEFC",
"O# c #92D1FF",
"P# c #89CEFF",
"Q# c #75C0FB",
"R# c #194691",
"S# c #0B5CD2",
"T# c #082F6F",
"U# c #0C3375",
"V# c #2371D3",
"W# c #2D7ECF",
"X# c #8EC3EF",
"Y# c #C6E9FF",
"Z# c #C2E5FE",
"`# c #C5E7FF",
" $ c #B7DEFB",
".$ c #498FD5",
"+$ c #3B86D1",
"@$ c #3782D0",
"#$ c #2B7ACD",
"$$ c #65A8E7",
"%$ c #9ED8FF",
"&$ c #8DD7FF",
"*$ c #3E7DC9",
"=$ c #10397B",
"-$ c #3988DC",
";$ c #99C9F1",
">$ c #D5F1FF",
",$ c #D3EEFF",
"'$ c #D6F0FF",
")$ c #B7DCFB",
"!$ c #559BE6",
"~$ c #4F97E2",
"{$ c #4B91D6",
"]$ c #3F88D2",
"^$ c #3E88D3",
"/$ c #81BFF3",
"($ c #89CAF9",
"_$ c #4FA0F0",
":$ c #144388",
"<$ c #4B94E5",
"[$ c #70AAE1",
"}$ c #96C3EC",
"|$ c #A9CFF1",
"1$ c #C9E7FA",
"2$ c #87AFE2",
"3$ c #143465",
"4$ c #1E4685",
"5$ c #5497E0",
"6$ c #5597D8",
"7$ c #448BD4",
"8$ c #458ED6",
"9$ c #3E8EE2",
"0$ c #114A9B",
"a$ c #5DA1EA",
"b$ c #65A1DD",
"c$ c #68A3DD",
"d$ c #72ABDF",
"e$ c #7BB5F1",
"f$ c #254B82",
"g$ c #2F64AA",
"h$ c #68A8E8",
"i$ c #5C9EE0",
"j$ c #4995E6",
"k$ c #2461B2",
"l$ c #6AAFFC",
"m$ c #7DB7EE",
"n$ c #8CBEEB",
"o$ c #93C5F3",
"p$ c #4578B9",
"q$ c #4E8EDE",
"r$ c #407AC1",
"s$ c #15376B",
"t$ c #1F4273",
"u$ c #376297",
"v$ c #5B8BC6",
"w$ c #598DD0",
"                  . + @                                         ",
"                # $ % & *     = - ;                             ",
"                > , ' ) ! ~ { ] ^ / (                           ",
"        _ :     < [ } | 1 2 3 4 5 6 7 8                         ",
"      9 0 a b c d e f g h i j k l m n o p     q                 ",
"      r s t u v w x y z A B C D E F G H I J K L M               ",
"      N O P 5 Q R S T U V W X X Y Z `  ...+.@.#.$.%.            ",
"    &.*.=.-.;.>.,.'.).!.~.~.{.].^.^./.(._.:.<.[.}.|.            ",
"      1.2.3.4.5.6.7.8.9.0.a.b.c.d.e.f.f.g.h.i.j.k.l.            ",
"      m.n.o.p.q.r.s.t.          u.v.w.x.y.z.A.B.C.D.            ",
"  E.F.G.H.I.J.K.L.M.                N.O.P.Q.R.S.T.U.V.W.        ",
"  X.Y.q.Z.`. +.+++                    @+#+$+%+&+*+=+-+;+>+,+    ",
"  '+)+!+~+{+]+^+/+                      (+_+:+<+[+}+|+1+2+3+    ",
"  4+5+6+7+o.8+9+0+a+                      b+c+d+d+e+f+g+h+i+    ",
"  j+k+l+m+n+o+p+q+r+                        s+t+u+v+w+x+y+z+    ",
"  A+B+C+D+E+F+G+H+I+J+                      K+L+M+N+O+P+Q+      ",
"  R+S+T+U+V+W+X+8+8+Y+Z+                    `+ @.@+@@@#@$@      ",
"        %@&@*@=@-@;@`.>@,@                    '@)@!@~@{@]@^@    ",
"          /@(@_@:@<@[@J.}@|@1@              2@3@4@5@6@7@8@9@0@  ",
"          a@b@c@p+[@d@]+e@f@g@h@i@        j@k@l@m@n@o@p@q@r@s@  ",
"        t@u@v@w@x@y@z@A@B@C@;@D@E@F@G@H@I@m J@K@L@M@N@O@P@Q@R@  ",
"        S@T@U@V@W@X@Y@Z@`@ #.#+#@###$#%#&#*#9+=#-#Y.;#>#,#'#)#  ",
"        !#~#{#]#^#/#(#>#_#:#<#[#}#}#}#|#1#2#3#[@4#5#6#7#8#9#    ",
"        0#a#b#c#d#e#f#g#h#i#j#k#l#l#l#m#n#o#p#q#r#q+s#t#u#      ",
"          v#w#x#y#z#A#B#C#D#E#F#G#H#I#J#K#L#M#N#O#P#Q#R#        ",
"            S#T#      U#V#W#X#Y#Z#`# $.$+$@$#$$$%$,.&$*$        ",
"                        =$-$;$>$,$'$)$!$~${$]$^$/$($_$:$        ",
"                          <$[$}$|$1$2$3$4$5$6$7$8$9$0$          ",
"                          a$b$c$d$e$f$    g$h$i$j$k$            ",
"                          l$m$n$o$p$        q$r$s$              ",
"                          t$u$v$w$                              ",
"                                                                "};

