<?xml version="1.0" encoding="UTF-8" standalone="no"?>
<!-- Created with Inkscape (http://www.inkscape.org/) -->

<svg
   xmlns:dc="http://purl.org/dc/elements/1.1/"
   xmlns:cc="http://creativecommons.org/ns#"
   xmlns:rdf="http://www.w3.org/1999/02/22-rdf-syntax-ns#"
   xmlns:svg="http://www.w3.org/2000/svg"
   xmlns="http://www.w3.org/2000/svg"
   xmlns:sodipodi="http://sodipodi.sourceforge.net/DTD/sodipodi-0.dtd"
   xmlns:inkscape="http://www.inkscape.org/namespaces/inkscape"
   width="32"
   height="32"
   viewBox="0 0 32 32.000001"
   id="svg2"
   version="1.1"
   inkscape:version="0.91 r13725"
   inkscape:export-filename="/home/ling/PKGS/_REPO/kndiswrapper/icons/close.png"
   inkscape:export-xdpi="90"
   inkscape:export-ydpi="90">
  <defs
     id="defs4" />
  <sodipodi:namedview
     id="base"
     pagecolor="#ffffff"
     bordercolor="#666666"
     borderopacity="1.0"
     inkscape:pageopacity="0.0"
     inkscape:pageshadow="2"
     inkscape:zoom="6.56"
     inkscape:cx="22.072473"
     inkscape:cy="13.867683"
     inkscape:document-units="px"
     inkscape:current-layer="layer1"
     showgrid="false"
     units="px"
     inkscape:window-width="1017"
     inkscape:window-height="646"
     inkscape:window-x="313"
     inkscape:window-y="64"
     inkscape:window-maximized="0" />
  <metadata
     id="metadata7">
    <rdf:RDF>
      <cc:Work
         rdf:about="">
        <dc:format>image/svg+xml</dc:format>
        <dc:type
           rdf:resource="http://purl.org/dc/dcmitype/StillImage" />
        <dc:title></dc:title>
      </cc:Work>
    </rdf:RDF>
  </metadata>
  <g
     inkscape:label="Layer 1"
     inkscape:groupmode="layer"
     id="layer1"
     transform="translate(0,-1020.3622)">
    <g
       transform="matrix(1.8081897,0,0,1.8081897,-766.48123,65.794454)"
       id="layer1-9"
       inkscape:label="Capa 1">
      <rect
         y="498.30029"
         x="343.99515"
         height="19.557413"
         width="0"
         id="rect4035"
         style="fill:#4d4d4d;fill-opacity:1;stroke:none" />
      <rect
         y="528.39447"
         x="353.27591"
         height="19.557413"
         width="0"
         id="rect4035-8"
         style="fill:#4d4d4d;fill-opacity:1;stroke:none" />
      <rect
         y="526.98016"
         x="355.69363"
         height="19.557413"
         width="0"
         id="rect4035-0"
         style="fill:#4d4d4d;fill-opacity:1;stroke:none" />
      <rect
         y="493.25864"
         x="321.12015"
         height="19.557413"
         width="0"
         id="rect4035-06"
         style="fill:#4d4d4d;fill-opacity:1;stroke:none" />
      <rect
         y="523.35278"
         x="330.40091"
         height="19.557413"
         width="0"
         id="rect4035-8-7"
         style="fill:#4d4d4d;fill-opacity:1;stroke:none" />
      <rect
         y="521.93848"
         x="332.81863"
         height="19.557413"
         width="0"
         id="rect4035-0-42"
         style="fill:#4d4d4d;fill-opacity:1;stroke:none" />
      <rect
         y="493.25864"
         x="321.12015"
         height="19.557413"
         width="0"
         id="rect4035-3"
         style="fill:#4d4d4d;fill-opacity:1;stroke:none" />
      <rect
         y="523.35278"
         x="330.40091"
         height="19.557413"
         width="0"
         id="rect4035-8-9"
         style="fill:#4d4d4d;fill-opacity:1;stroke:none" />
      <rect
         y="521.93848"
         x="332.81863"
         height="19.557413"
         width="0"
         id="rect4035-0-4"
         style="fill:#4d4d4d;fill-opacity:1;stroke:none" />
      <rect
         y="493.25864"
         x="321.12015"
         height="19.557413"
         width="0"
         id="rect4035-2"
         style="fill:#4d4d4d;fill-opacity:1;stroke:none" />
      <rect
         y="523.35278"
         x="330.40091"
         height="19.557413"
         width="0"
         id="rect4035-8-99"
         style="fill:#4d4d4d;fill-opacity:1;stroke:none" />
      <rect
         y="521.93848"
         x="332.81863"
         height="19.557413"
         width="0"
         id="rect4035-0-43"
         style="fill:#4d4d4d;fill-opacity:1;stroke:none" />
      <rect
         y="493.25864"
         x="321.12015"
         height="19.557413"
         width="0"
         id="rect4035-3-9"
         style="fill:#4d4d4d;fill-opacity:1;stroke:none" />
      <rect
         y="523.35278"
         x="330.40091"
         height="19.557413"
         width="0"
         id="rect4035-8-9-9"
         style="fill:#4d4d4d;fill-opacity:1;stroke:none" />
      <rect
         y="521.93848"
         x="332.81863"
         height="19.557413"
         width="0"
         id="rect4035-0-4-4"
         style="fill:#4d4d4d;fill-opacity:1;stroke:none" />
      <rect
         y="521.64453"
         x="414.81363"
         height="14.666644"
         width="0"
         id="rect4035-5"
         style="fill:#4d4d4d;fill-opacity:1;stroke:none" />
      <rect
         y="525.00336"
         x="408.74429"
         height="14.666644"
         width="0"
         id="rect4035-7"
         style="fill:#4d4d4d;fill-opacity:1;stroke:none" />
      <rect
         y="508.44525"
         x="402.73392"
         height="14.666644"
         width="0"
         id="rect4035-9"
         style="fill:#4d4d4d;fill-opacity:1;stroke:none" />
      <rect
         y="524.76184"
         x="403.85928"
         height="14.666644"
         width="0"
         id="rect4035-96"
         style="fill:#4d4d4d;fill-opacity:1;stroke:none" />
      <rect
         y="528.12061"
         x="397.78995"
         height="14.666644"
         width="0"
         id="rect4035-7-0"
         style="fill:#4d4d4d;fill-opacity:1;stroke:none" />
      <rect
         y="511.5625"
         x="391.77957"
         height="14.666644"
         width="0"
         id="rect4035-9-6"
         style="fill:#4d4d4d;fill-opacity:1;stroke:none" />
      <rect
         y="521.64453"
         x="414.81363"
         height="14.666644"
         width="0"
         id="rect4035-1"
         style="fill:#4d4d4d;fill-opacity:1;stroke:none" />
      <rect
         y="525.00336"
         x="408.74429"
         height="14.666644"
         width="0"
         id="rect4035-7-2"
         style="fill:#4d4d4d;fill-opacity:1;stroke:none" />
      <rect
         y="508.44525"
         x="402.73392"
         height="14.666644"
         width="0"
         id="rect4035-9-0"
         style="fill:#4d4d4d;fill-opacity:1;stroke:none" />
      <rect
         y="524.76184"
         x="403.85928"
         height="14.666644"
         width="0"
         id="rect4035-96-9"
         style="fill:#4d4d4d;fill-opacity:1;stroke:none" />
      <rect
         y="528.12061"
         x="397.78995"
         height="14.666644"
         width="0"
         id="rect4035-7-0-9"
         style="fill:#4d4d4d;fill-opacity:1;stroke:none" />
      <rect
         y="511.5625"
         x="391.77957"
         height="14.666644"
         width="0"
         id="rect4035-9-6-9"
         style="fill:#4d4d4d;fill-opacity:1;stroke:none" />
      <rect
         y="509.90729"
         x="369.0961"
         height="14.668059"
         width="0"
         id="rect4035-70"
         style="fill:#4d4d4d;fill-opacity:1;stroke:none" />
      <rect
         y="532.47791"
         x="376.05667"
         height="14.668059"
         width="0"
         id="rect4035-8-94"
         style="fill:#4d4d4d;fill-opacity:1;stroke:none" />
      <rect
         y="531.41718"
         x="377.86996"
         height="14.668059"
         width="0"
         id="rect4035-0-6"
         style="fill:#4d4d4d;fill-opacity:1;stroke:none" />
      <path
         id="path4146"
         d="m 432.71429,528.79074 a 8,3.0000005 0 0 0 -8,3 l 0,10 a 8,3.0000005 0 0 0 8,3 8,3.0000005 0 0 0 8,-3 l 0,-10 a 8,3.0000005 0 0 0 -8,-3 z m 0,1 a 7,2 0 0 1 7,2 7,2 0 0 1 -7,2 7,2 0 0 1 -7,-2 7,2 0 0 1 7,-2 z m 7,3.44531 0,3.55469 a 7,2 0 0 1 -7,2 7,2 0 0 1 -7,-2 l 0,-3.54883 a 8,3.0000005 0 0 0 7,1.54883 8,3.0000005 0 0 0 7,-1.55469 z m 0,5 0,3.55469 a 7,2 0 0 1 -7,2 7,2 0 0 1 -7,-2 l 0,-3.54883 a 8,3.0000005 0 0 0 7,1.54883 8,3.0000005 0 0 0 7,-1.55469 z"
         style="fill:#4d4d4d;fill-opacity:1;stroke:none;stroke-width:2;stroke-miterlimit:4;stroke-dasharray:none"
         inkscape:connector-curvature="0" />
    </g>
    <rect
       y="1036.026"
       x="23.192455"
       height="15.215514"
       width="1.6752871"
       id="rect4119"
       style="opacity:1;fill:#4d4d4d;fill-opacity:1;stroke:none" />
    <rect
       y="-31.53017"
       x="1042.4728"
       height="15.215514"
       width="1.6752871"
       id="rect4119-9"
       style="opacity:1;fill:#4d4d4d;fill-opacity:1;stroke:none"
       transform="matrix(0,1,-1,0,0,0)" />
  </g>
</svg>
