/* XPM */
static const char * adddriver_xpm[] = {
"32 32 352 2",
"   c None",
".  c #626262",
"+  c #686868",
"@  c #6E6E6E",
"#  c #646464",
"$  c #898989",
"%  c #A2A2A2",
"&  c #B3B3B3",
"*  c #BDBDBD",
"=  c #C5C5C5",
"-  c #CBCBCB",
";  c #CCCCCC",
">  c #C9C9C9",
",  c #C4C4C4",
"'  c #C3C3C3",
")  c #C2C2C2",
"!  c #BCBCBC",
"~  c #B5B5B5",
"{  c #ADADAD",
"]  c #A6A6A6",
"^  c #9E9E9E",
"/  c #8A8A8A",
"(  c #656565",
"_  c #8D8D8D",
":  c #BEBEBE",
"<  c #D8D8D8",
"[  c #D2D2D2",
"}  c #B9B9B9",
"|  c #A9A9A9",
"1  c #999999",
"2  c #969696",
"3  c #989898",
"4  c #9C9C9C",
"5  c #9F9F9F",
"6  c #979797",
"7  c #909090",
"8  c #9A9A9A",
"9  c #AEAEAE",
"0  c #A7A7A7",
"a  c #8F8F8F",
"b  c #7E7E7E",
"c  c #CFCFCF",
"d  c #B4B4B4",
"e  c #878787",
"f  c #828282",
"g  c #868686",
"h  c #8B8B8B",
"i  c #949494",
"j  c #9D9D9D",
"k  c #A1A1A1",
"l  c #A5A5A5",
"m  c #B0B0B0",
"n  c #B1B1B1",
"o  c #959595",
"p  c #B2B2B2",
"q  c #797979",
"r  c #E1E1E1",
"s  c #838383",
"t  c #888888",
"u  c #8C8C8C",
"v  c #919191",
"w  c #A4A4A4",
"x  c #A8A8A8",
"y  c #ACACAC",
"z  c #B7B7B7",
"A  c #BABABA",
"B  c #929292",
"C  c #AFAFAF",
"D  c #CECECE",
"E  c #858585",
"F  c #848484",
"G  c #8E8E8E",
"H  c #AAAAAA",
"I  c #BBBBBB",
"J  c #BFBFBF",
"K  c #A3A3A3",
"L  c #DCDCDC",
"M  c #939393",
"N  c #ABABAB",
"O  c #C0C0C0",
"P  c #CDCDCD",
"Q  c #D7D7D7",
"R  c #B6B6B6",
"S  c #C8C8C8",
"T  c #C7C7C7",
"U  c #D3D3D3",
"V  c #EAEAEA",
"W  c #F6F6F6",
"X  c #D6D6D6",
"Y  c #F0F0F0",
"Z  c #FBFBFB",
"`  c #FAFAFA",
" . c #F1F1F1",
".. c #E2E2E2",
"+. c #DBDBDB",
"@. c #DADADA",
"#. c #EFEFEF",
"$. c #F7F7F7",
"%. c #F3F3F3",
"&. c #D0D0D0",
"*. c #E8E8E8",
"=. c #EBEBEB",
"-. c #F4F4F4",
";. c #F2F2F2",
">. c #C6C6C6",
",. c #C5C6C5",
"'. c #2F862E",
"). c #2E862D",
"!. c #379036",
"~. c #3E973D",
"{. c #40983F",
"]. c #419940",
"^. c #9ABC99",
"/. c #767676",
"(. c #CACBCA",
"_. c #128011",
":. c #A9CEA9",
"<. c #9EC79E",
"[. c #93C193",
"}. c #88BB88",
"|. c #137B13",
"1. c #669865",
"2. c #D5D5D5",
"3. c #E7E7E7",
"4. c #158214",
"5. c #CDE2CD",
"6. c #BFDABF",
"7. c #B0D2B0",
"8. c #A2C9A2",
"9. c #0E780E",
"0. c #558854",
"a. c #C1C1C1",
"b. c #C3C4C3",
"c. c #148112",
"d. c #BBD8BB",
"e. c #ADD0AD",
"f. c #9EC89E",
"g. c #90BF90",
"h. c #047204",
"i. c #4E814E",
"j. c #E3E3E3",
"k. c #B8B8B8",
"l. c #DDDDDD",
"m. c #7D7D7D",
"n. c #7A7A7A",
"o. c #818181",
"p. c #A8A9A8",
"q. c #9BC69B",
"r. c #8CBE8C",
"s. c #73B073",
"t. c #007200",
"u. c #4F824E",
"v. c #DFDFDF",
"w. c #E0E0E0",
"x. c #DEDEDE",
"y. c #D9D9D9",
"z. c #A9AAA9",
"A. c #10820F",
"B. c #97C797",
"C. c #89BF89",
"D. c #7AB87A",
"E. c #4BA04B",
"F. c #007A00",
"G. c #60925F",
"H. c #7F7F7F",
"I. c #CACACA",
"J. c #D1D1D1",
"K. c #D1D2D1",
"L. c #0E850D",
"M. c #85C285",
"N. c #77BB77",
"O. c #68B468",
"P. c #2A962A",
"Q. c #008100",
"R. c #568855",
"S. c #369334",
"T. c #1B8C1A",
"U. c #1A8C19",
"V. c #198C18",
"W. c #188B17",
"X. c #178B16",
"Y. c #168B16",
"Z. c #128E12",
"`. c #74BE74",
" + c #65B865",
".+ c #54B054",
"++ c #078E07",
"@+ c #008A00",
"#+ c #078506",
"$+ c #0E890D",
"%+ c #0F8A0E",
"&+ c #0F8B0E",
"*+ c #0D880C",
"=+ c #0B870A",
"-+ c #0B8409",
";+ c #A0A0A0",
">+ c #259024",
",+ c #C7E6C7",
"'+ c #B9DFB9",
")+ c #AAD9AA",
"!+ c #9CD39C",
"~+ c #8DCD8D",
"{+ c #7FC77F",
"]+ c #70C170",
"^+ c #62BB62",
"/+ c #53B553",
"(+ c #26A326",
"_+ c #009400",
":+ c #009500",
"<+ c #009600",
"[+ c #009700",
"}+ c #009800",
"|+ c #019001",
"1+ c #1A8719",
"2+ c #B5E0B5",
"3+ c #A7DAA7",
"4+ c #98D598",
"5+ c #8ACF8A",
"6+ c #7BCA7B",
"7+ c #6DC46D",
"8+ c #5EBF5E",
"9+ c #50BA50",
"0+ c #31AE31",
"a+ c #019D01",
"b+ c #009D00",
"c+ c #009E00",
"d+ c #009F00",
"e+ c #00A000",
"f+ c #00A100",
"g+ c #00A200",
"h+ c #109C10",
"i+ c #083907",
"j+ c #D4D4D4",
"k+ c #1E8E1D",
"l+ c #A3DCA3",
"m+ c #95D795",
"n+ c #86D286",
"o+ c #78CD78",
"p+ c #6AC86A",
"q+ c #5BC35B",
"r+ c #4BBE4B",
"s+ c #25B125",
"t+ c #01A501",
"u+ c #00A500",
"v+ c #00A600",
"w+ c #00A700",
"x+ c #00A800",
"y+ c #00A900",
"z+ c #00AA00",
"A+ c #00AB00",
"B+ c #25A824",
"C+ c #259724",
"D+ c #92D992",
"E+ c #83D583",
"F+ c #75D075",
"G+ c #62CB62",
"H+ c #46C246",
"I+ c #25B825",
"J+ c #08AF08",
"K+ c #00AD00",
"L+ c #00AE00",
"M+ c #00AF00",
"N+ c #00B000",
"O+ c #00B100",
"P+ c #00B200",
"Q+ c #00B300",
"R+ c #00B400",
"S+ c #3FB53F",
"T+ c #043604",
"U+ c #5A5A5A",
"V+ c #259A24",
"W+ c #1FB81F",
"X+ c #16B616",
"Y+ c #0DB40D",
"Z+ c #01B101",
"`+ c #00B500",
" @ c #00B600",
".@ c #00B700",
"+@ c #00B800",
"@@ c #00B900",
"#@ c #02B702",
"$@ c #0FBB0F",
"%@ c #1FC01F",
"&@ c #30C530",
"*@ c #44CA44",
"=@ c #65C064",
"-@ c #4D4D4D",
";@ c #80AE7F",
">@ c #5A975A",
",@ c #4A874A",
"'@ c #4A8749",
")@ c #019D00",
"!@ c #00BF00",
"~@ c #00C000",
"{@ c #00C100",
"]@ c #00BA00",
"^@ c #247A23",
"/@ c #2F6B2E",
"(@ c #326F31",
"_@ c #3A7639",
":@ c #397738",
"<@ c #0A5708",
"[@ c #015B00",
"}@ c #4C4C4C",
"|@ c #666666",
"1@ c #01A100",
"2@ c #00C800",
"3@ c #00C900",
"4@ c #01CA01",
"5@ c #02C102",
"6@ c #3D703D",
"7@ c #717171",
"8@ c #4F4F4F",
"9@ c #5C5C5C",
"0@ c #6A6A6A",
"a@ c #727272",
"b@ c #777777",
"c@ c #787878",
"d@ c #7B7B7B",
"e@ c #828382",
"f@ c #09A508",
"g@ c #14D014",
"h@ c #16D116",
"i@ c #19D119",
"j@ c #1CD21C",
"k@ c #22C922",
"l@ c #1E5C1D",
"m@ c #1AA819",
"n@ c #37D837",
"o@ c #3AD83A",
"p@ c #3DD83D",
"q@ c #3FD93F",
"r@ c #4CD14C",
"s@ c #015800",
"t@ c #2CAC2B",
"u@ c #5CDE5C",
"v@ c #5EDF5E",
"w@ c #61E061",
"x@ c #64E064",
"y@ c #78DA78",
"z@ c #3DAF3C",
"A@ c #80E680",
"B@ c #82E682",
"C@ c #85E785",
"D@ c #88E788",
"E@ c #9DE19D",
"F@ c #3BA639",
"G@ c #7ED27D",
"H@ c #86D486",
"I@ c #8FD68E",
"J@ c #97D897",
"K@ c #95D095",
"                        . . + @ + . .                           ",
"            # $ % & * = - ; > , ' ) ! ~ { ] ^ / (               ",
"        _ : < [ } | ^ 1 2 2 3 1 4 ^ 5 5 4 6 7 8 9 0 a           ",
"    b c < d 1 e f f f g h a i 3 j k l | { m & n ] o 6 p e       ",
"  q r ! _ f f f f f s t u v 2 8 5 w x y m d z } A A & B { h     ",
"  C D E f f f f f f F $ G B 6 4 k l H 9 & z I : J J * } $ m     ",
"  K L / f f f f f f F $ G M 3 j % 0 N m ~ } : ) , ' O } 2 *     ",
"  h P Q 3 f f f f f E / a i 3 j % 0 y n R I O , S T & H U F     ",
"  5 p V W X H B F f E / a i 3 j % 0 y n R I : R { z [ A y ~     ",
"  % > Y Z ` Z  ...D } { % ^ ^ 5 k % K N & ! S U P C n +.@.y     ",
"  % ; #.$.$.W %.0 m A ) ; [ [ U [ [ &.' A R & A X *.@.; ; H     ",
"  G > =.-.-.-.;.> S >.>.' ) ) ' ,.'.).!.~.{.].^.; ; ; ; ' $     ",
"  /.2 r #.Y Y #.; ; ; ; ; ; ; ; (._.:.<.[.}.|.1.= ; - y 4 4     ",
"  3 _ A 2...3.V ; ; ; ; ; ; ; ; (.4.5.6.7.8.9.0.9 l 0 ) l k     ",
"  k ) D >.: ) T ^ 9 z ! a.' = T b.c.d.e.f.g.h.i.= j.k.| @.R     ",
"  % ; L l.2.> ! m.n.o.u M 1 ^ K p._.:.q.r.s.t.u.N I v.w.P &     ",
"  ^ ; +.x.l.L y.: ~ { 0 w w l ] z.A.B.C.D.E.F.G.[ 2.; ; ; w     ",
"  H.! X @.@.@.y.; - I.I.- P c J.K.L.M.N.O.P.Q.R.J ; ; - w i     ",
"  i / 9 ; 2.X 2.; ; S.T.U.V.W.X.Y.Z.`. +.+++@+#+$+%+&+*+=+-+    ",
"  ;+: 0 3 % R >., - >+,+'+)+!+~+{+]+^+/+(+_+_+:+<+<+[+}+}+|+    ",
"  % - P T ~ % 2 o.g 1+2+3+4+5+6+7+8+9+0+a+b+b+c+d+e+e+f+g+h+i+  ",
"  ;+; [ j+J.c > z H k+l+m+n+o+p+q+r+s+t+u+v+w+w+x+y+y+z+A+B+i+  ",
"  b , [ j+j+j+j+- I.C+D+E+F+G+H+I+J+K+L+L+M+N+N+O+P+P+Q+R+S+T+  ",
"  U+m.} c j+j+j+; ; V+W+X+Y+Z+O+P+`+ @.@+@+@@@.@#@$@%@&@*@=@    ",
"    -@@ 7 9 ) ; - ; ;@>@,@,@,@,@'@)@!@~@{@{@]@^@/@(@_@:@<@[@    ",
"        }@|@q h g i ;+w x N y y p.1@2@3@4@4@5@6@G B 7@          ",
"              8@9@0@a@b@c@q d@H.e@f@g@h@i@j@k@l@                ",
"                                  m@n@o@p@q@r@s@                ",
"                                  t@u@v@w@x@y@s@                ",
"                                  z@A@B@C@D@E@s@                ",
"                                  F@G@H@I@J@K@s@                ",
"                                                                "};

