/* XPM */
static const char * close_xpm[] = {
"32 32 390 2",
"   c None",
".  c #101C27",
"+  c #121E29",
"@  c #141F29",
"#  c #121E28",
"$  c #111C27",
"%  c #151F2A",
"&  c #1B252E",
"*  c #3E454D",
"=  c #585F64",
"-  c #676C72",
";  c #777C80",
">  c #73787D",
",  c #64696F",
"'  c #545A61",
")  c #373E46",
"!  c #1A242E",
"~  c #131E28",
"{  c #1A242D",
"]  c #5F656B",
"^  c #A4A7AB",
"/  c #D2D4D5",
"(  c #ECEDEE",
"_  c #F8F8F8",
":  c #F9FAFA",
"<  c #F9F9F9",
"[  c #F5F6F6",
"}  c #E9E9EA",
"|  c #CACCCE",
"1  c #93989B",
"2  c #495057",
"3  c #1A232D",
"4  c #111D27",
"5  c #19232C",
"6  c #60666C",
"7  c #BDC0C2",
"8  c #FCFCFC",
"9  c #FDFDFD",
"0  c #F7F8F8",
"a  c #F5F5F6",
"b  c #F4F5F6",
"c  c #F3F4F5",
"d  c #F4F4F5",
"e  c #F4F5F5",
"f  c #F6F7F7",
"g  c #EEEFF0",
"h  c #9EA2A5",
"i  c #484F56",
"j  c #17212B",
"k  c #111C28",
"l  c #1D2730",
"m  c #70757B",
"n  c #EBECEC",
"o  c #EDEDEE",
"p  c #E8E9EA",
"q  c #E6E7E8",
"r  c #E7E8E9",
"s  c #E9EAEB",
"t  c #C6C7CA",
"u  c #4A5057",
"v  c #1E2730",
"w  c #9FA2A6",
"x  c #F8F8F9",
"y  c #FAFBFB",
"z  c #F2F2F3",
"A  c #E3E3E5",
"B  c #D9DBDD",
"C  c #D7D8DA",
"D  c #D9DBDC",
"E  c #62686E",
"F  c #18222C",
"G  c #6F747A",
"H  c #FBFBFB",
"I  c #EAEAEC",
"J  c #EAEBEB",
"K  c #E3E3E4",
"L  c #DBDDDE",
"M  c #CFD1D2",
"N  c #CBCDCF",
"O  c #D5D6D8",
"P  c #D4D6D7",
"Q  c #CCCED0",
"R  c #B8BBBD",
"S  c #3A4148",
"T  c #17222B",
"U  c #60656B",
"V  c #E9EAEA",
"W  c #F6F6F7",
"X  c #E1E2E4",
"Y  c #E7E7E8",
"Z  c #FFFFFF",
"`  c #D1D2D4",
" . c #BCBEC1",
".. c #BBBDC0",
"+. c #C1C3C6",
"@. c #ECECED",
"#. c #DEDFE1",
"$. c #BABCBF",
"%. c #919599",
"&. c #2F373E",
"*. c #BCBEC0",
"=. c #DFE0E1",
"-. c #D3D5D6",
";. c #EBECED",
">. c #BCBEC2",
",. c #AFB2B5",
"'. c #B5B8BB",
"). c #E0E1E2",
"!. c #F8F9F9",
"~. c #AAADB0",
"{. c #A7ABAE",
"]. c #53595F",
"^. c #5C6268",
"/. c #E2E3E4",
"(. c #C8CACC",
"_. c #C6C8CA",
":. c #E5E5E7",
"<. c #F2F3F3",
"[. c #B0B3B7",
"}. c #A0A3A7",
"|. c #A8ABAE",
"1. c #E3E4E6",
"2. c #EAEBEC",
"3. c #8F9398",
"4. c #888D91",
"5. c #212931",
"6. c #111D28",
"7. c #1B252F",
"8. c #A2A5A8",
"9. c #EEEEEF",
"0. c #BDBFC2",
"a. c #BBBDBF",
"b. c #C3C6C8",
"c. c #EFF0F1",
"d. c #E6E6E8",
"e. c #A6A9AD",
"f. c #9DA0A4",
"g. c #D5D6D7",
"h. c #F3F4F4",
"i. c #A9ADB0",
"j. c #8D9095",
"k. c #94989C",
"l. c #93979B",
"m. c #313941",
"n. c #3D454C",
"o. c #C9CBCD",
"p. c #B1B4B7",
"q. c #ACAFB2",
"r. c #A7AAAD",
"s. c #A3A6AA",
"t. c #FEFEFE",
"u. c #DDDFE0",
"v. c #979CA0",
"w. c #7B8085",
"x. c #84898D",
"y. c #52585E",
"z. c #1E272F",
"A. c #14202B",
"B. c #565D62",
"C. c #DEDFE0",
"D. c #8B8F93",
"E. c #81868A",
"F. c #808489",
"G. c #7B7F84",
"H. c #94989B",
"I. c #E4E5E6",
"J. c #A0A4A7",
"K. c #787C81",
"L. c #787D82",
"M. c #595F65",
"N. c #14202A",
"O. c #15212C",
"P. c #17232D",
"Q. c #61666C",
"R. c #CBCCCF",
"S. c #696F74",
"T. c #797E82",
"U. c #E1E2E3",
"V. c #F1F1F2",
"W. c #888C91",
"X. c #62696E",
"Y. c #555B61",
"Z. c #252D34",
"`. c #17222D",
" + c #17232E",
".+ c #19242E",
"++ c #6B7076",
"@+ c #B0B2B5",
"#+ c #5D6369",
"$+ c #898D92",
"%+ c #EDEEEE",
"&+ c #A1A5A9",
"*+ c #585E64",
"=+ c #4E545B",
"-+ c #262E36",
";+ c #19252F",
">+ c #1B262F",
",+ c #6B7075",
"'+ c #94999D",
")+ c #474E55",
"!+ c #4C5359",
"~+ c #4E555B",
"{+ c #FEFFFF",
"]+ c #6D7278",
"^+ c #4D545B",
"/+ c #474F55",
"(+ c #3E454C",
"_+ c #2A3239",
":+ c #222A32",
"<+ c #1B2530",
"[+ c #1B2731",
"}+ c #1C2731",
"|+ c #5A6066",
"1+ c #82878B",
"2+ c #2A323A",
"3+ c #2F373F",
"4+ c #383F47",
"5+ c #3F464D",
"6+ c #444B52",
"7+ c #535A5F",
"8+ c #B4B7B9",
"9+ c #FEFEFF",
"0+ c #D3D5D7",
"a+ c #646A70",
"b+ c #434A50",
"c+ c #3A4249",
"d+ c #333A41",
"e+ c #2B333A",
"f+ c #252D35",
"g+ c #242C34",
"h+ c #1C2833",
"i+ c #1C2832",
"j+ c #81868B",
"k+ c #283038",
"l+ c #2B333B",
"m+ c #40474E",
"n+ c #C4C6C8",
"o+ c #EDEEEF",
"p+ c #E5E6E7",
"q+ c #50575E",
"r+ c #293139",
"s+ c #272F37",
"t+ c #1D2933",
"u+ c #1E2A35",
"v+ c #1D2934",
"w+ c #3D464D",
"x+ c #7D8187",
"y+ c #3B424A",
"z+ c #A9ACAF",
"A+ c #7D8388",
"B+ c #585E65",
"C+ c #D5D7D8",
"D+ c #CDCFD1",
"E+ c #4F565C",
"F+ c #2D353D",
"G+ c #283039",
"H+ c #1D2A35",
"I+ c #1F2B36",
"J+ c #28323B",
"K+ c #74797F",
"L+ c #9C9FA3",
"M+ c #686E74",
"N+ c #2E373E",
"O+ c #444B53",
"P+ c #D6D7D9",
"Q+ c #D3D4D6",
"R+ c #2E363E",
"S+ c #353C44",
"T+ c #2F3740",
"U+ c #27313A",
"V+ c #212D38",
"W+ c #25303A",
"X+ c #565D63",
"Y+ c #343C43",
"Z+ c #CCCDD0",
"`+ c #81868C",
" @ c #313942",
".@ c #5C6369",
"+@ c #D6D8D9",
"@@ c #FAFAFA",
"#@ c #384048",
"$@ c #343C44",
"%@ c #3B434A",
"&@ c #303840",
"*@ c #232E39",
"=@ c #242F3A",
"-@ c #2D3740",
";@ c #444C52",
">@ c #353D45",
",@ c #82878C",
"'@ c #F2F3F4",
")@ c #6D7379",
"!@ c #4A5158",
"~@ c #B2B5B8",
"{@ c #313A42",
"]@ c #404850",
"^@ c #3C434B",
"/@ c #25303B",
"(@ c #28323D",
"_@ c #485057",
":@ c #545B62",
"<@ c #3F474F",
"[@ c #444C53",
"}@ c #757B80",
"|@ c #9A9FA3",
"1@ c #6A7076",
"2@ c #394049",
"3@ c #565C63",
"4@ c #8A8F95",
"5@ c #868B90",
"6@ c #4B5259",
"7@ c #373F47",
"8@ c #40484F",
"9@ c #495058",
"0@ c #3A414A",
"a@ c #26323C",
"b@ c #303A43",
"c@ c #535A61",
"d@ c #464E55",
"e@ c #3C444C",
"f@ c #3B434C",
"g@ c #3C434C",
"h@ c #3B434B",
"i@ c #474E56",
"j@ c #525A61",
"k@ c #3E474F",
"l@ c #2F3A42",
"m@ c #28343E",
"n@ c #29353F",
"o@ c #364048",
"p@ c #4B535A",
"q@ c #596066",
"r@ c #4A5259",
"s@ c #4B525A",
"t@ c #5A6067",
"u@ c #353F47",
"v@ c #29363F",
"w@ c #38424B",
"x@ c #60666E",
"y@ c #5B6269",
"z@ c #444C54",
"A@ c #434B53",
"B@ c #5C636A",
"C@ c #60676E",
"D@ c #38424A",
"E@ c #2B3741",
"F@ c #2D3842",
"G@ c #374049",
"H@ c #4D555D",
"I@ c #676D74",
"J@ c #60666D",
"K@ c #545C63",
"L@ c #4B535B",
"M@ c #464E56",
"N@ c #454D55",
"O@ c #545B63",
"P@ c #4E565D",
"Q@ c #2D3843",
"R@ c #323C46",
"S@ c #3D4650",
"T@ c #535B63",
"U@ c #646B72",
"V@ c #6C7279",
"W@ c #71777D",
"X@ c #6F757B",
"Y@ c #6E747A",
"Z@ c #545C64",
"`@ c #3D4750",
" # c #313C46",
".# c #2E3944",
"+# c #2F3A45",
"@# c #303A45",
"## c #36404A",
"$# c #3F4852",
"%# c #4F5760",
"&# c #5A6169",
"*# c #60686E",
"=# c #646B71",
"-# c #5A6269",
";# c #505860",
"># c #3E4852",
",# c #36404B",
"'# c #303B46",
")# c #323D47",
"!# c #353F4A",
"~# c #38424C",
"{# c #38434C",
"]# c #35404A",
"^# c #313C47",
"/# c #323D48",
"                        . . . . . . . .                         ",
"                  . . . . . + @ @ # $ . . . .                   ",
"                . $ % & * = - ; > , ' ) ! @ . . .               ",
"            . . ~ { ] ^ / ( _ : < [ } | 1 2 3 ~ . .             ",
"          . 4 5 6 7 8 9 : 0 a b c d e a f g h i j k .           ",
"        . . l m n 9 0 o p q q q q q q q r p s t u & . .         ",
"      . k v w x y z s A B C C C C C C C C C C D | E { 4 .       ",
"    . . F G < H I q J K L M N N N N N N N O P N Q R S T .       ",
"    . ~ U V W X Y 8 Z < `  ...........+.@.Z 9 #.$...%.&.~ .     ",
"  . . 3 *.H =.-.z Z Z Z ;.>.,.,.,.,.'.).Z Z Z !.~.,.{.].{ $ .   ",
"  . @ ^._ /.(._.:.Z Z Z Z <.[.}.}.|.1.Z Z Z Z 2.3.}.}.4.5.% .   ",
"  6.7.8.9.| 0.a.b.c.Z Z Z Z d.e.f.g.Z Z Z Z h.i.j.k.k.l.m.F 6.  ",
"+ + n.o.-.p.q.r.s.h q t.Z Z Z c.u.Z Z Z Z <.v.w.x.x.x.x.y.z.+ + ",
"A.A.B.C.~.D.x.E.F.G.H.I.Z Z Z Z Z Z Z Z z J.m K.L.L.L.L.M.5.N.A.",
"O.P.Q.R.S.S.S.S.S.S.S.T.U.t.Z Z Z Z Z V.W.X.S.S.S.S.S.S.Y.Z.`.O.",
" +.+++@+#+#+#+#+#+#+#+#+$+%+Z Z Z Z H &+*+^.#+#+#+#+#+#+=+-+.+ +",
";+>+,+'+)+!+~+~+~+~+~+^.N {+Z Z Z Z Z p ]+~+~+~+~+^+/+(+_+:+<+;+",
"[+}+|+1+2+3+4+5+6+6+7+8+9+Z Z Z Z Z Z Z 0+a+6+b+c+d+e+f+g+g+}+[+",
"h+i+~+j+k+k+k+k+l+m+n+t.Z Z Z o+D t.Z Z Z p+q+r+k+k+k+k+r+s+t+h+",
"u+v+w+x+l+2+2+2+y+z+t.Z Z Z %+A+B+C+Z Z Z Z D+E+2+2+2+l+F+G+H+u+",
"  I+J+K+y+3+3+3+L+t.Z Z Z o+M+N+3+O+P+t.Z Z Z Q+R+3+3+S+T+U+I+  ",
"  V+W+q+X+Y+m.m.Z+Z Z Z 9.`+ @m.m.m..@+@Z Z Z @@#@m.$@%@&@W+V+  ",
"  *@=@-@] ;@>@>@,@'@t.;.)@>@>@>@>@>@>@!@P+8 @@~@{@>@]@^@-@=@*@  ",
"    /@(@_@:@<@#@[@}@|@1@2@#@#@#@#@#@#@#@3@4@5@6@7@8@9@0@(@/@    ",
"      a@b@_@c@d@e@e@f@g@e@e@e@e@e@e@e@e@e@e@h@f@i@j@k@l@a@a@    ",
"      m@n@o@p@q@r@<@<@<@<@<@<@<@<@<@<@<@<@<@<@s@t@s@u@n@m@      ",
"        n@v@w@s@x@y@p@z@A@A@A@A@A@A@A@A@z@p@B@C@s@D@v@n@        ",
"          E@F@G@H@C@I@J@K@L@M@N@N@M@s@O@J@I@C@P@G@F@E@          ",
"            F@Q@R@S@T@U@V@W@W@X@Y@W@W@)@U@Z@`@ #Q@F@            ",
"              .#+#@###$#%#&#*#=#U@*#-#;#>#,#'#+#                ",
"                  '#'#'#'#)#!#~#{#]#^#'#'#'#'#                  ",
"                        ^#/#/#/#/#/#/#^#                        "};
