<?xml version="1.0" encoding="UTF-8" standalone="no"?>
<!-- Created with Inkscape (http://www.inkscape.org/) -->

<svg
   xmlns:dc="http://purl.org/dc/elements/1.1/"
   xmlns:cc="http://creativecommons.org/ns#"
   xmlns:rdf="http://www.w3.org/1999/02/22-rdf-syntax-ns#"
   xmlns:svg="http://www.w3.org/2000/svg"
   xmlns="http://www.w3.org/2000/svg"
   xmlns:sodipodi="http://sodipodi.sourceforge.net/DTD/sodipodi-0.dtd"
   xmlns:inkscape="http://www.inkscape.org/namespaces/inkscape"
   width="32"
   height="32"
   viewBox="0 0 32 32.000001"
   id="svg2"
   version="1.1"
   inkscape:version="0.91 r13725"
   inkscape:export-filename="/home/ling/PKGS/_REPO/kndiswrapper/icons/close.png"
   inkscape:export-xdpi="90"
   inkscape:export-ydpi="90">
  <defs
     id="defs4" />
  <sodipodi:namedview
     id="base"
     pagecolor="#ffffff"
     bordercolor="#666666"
     borderopacity="1.0"
     inkscape:pageopacity="0.0"
     inkscape:pageshadow="2"
     inkscape:zoom="8.6599296"
     inkscape:cx="10.82094"
     inkscape:cy="19.786222"
     inkscape:document-units="px"
     inkscape:current-layer="layer1"
     showgrid="false"
     units="px"
     inkscape:window-width="1017"
     inkscape:window-height="646"
     inkscape:window-x="81"
     inkscape:window-y="49"
     inkscape:window-maximized="0" />
  <metadata
     id="metadata7">
    <rdf:RDF>
      <cc:Work
         rdf:about="">
        <dc:format>image/svg+xml</dc:format>
        <dc:type
           rdf:resource="http://purl.org/dc/dcmitype/StillImage" />
        <dc:title></dc:title>
      </cc:Work>
    </rdf:RDF>
  </metadata>
  <g
     inkscape:label="Layer 1"
     inkscape:groupmode="layer"
     id="layer1"
     transform="translate(0,-1020.3622)">
    <g
       transform="matrix(1.8877083,0,0,1.8877083,-4.7715977,-929.41909)"
       id="layer1-9"
       inkscape:label="Capa 1">
      <rect
         ry="2.500001"
         y="1033.3622"
         x="9.000001"
         height="5.0000019"
         width="5.0000019"
         id="rect4139"
         style="fill:#4d4d4d;fill-opacity:1;stroke:none" />
      <path
         transform="translate(0,1030.3622)"
         id="rect4141"
         d="M 5.5,14 C 4.1149999,14 3,15.115 3,16.5 3,17.885 4.1149999,19 5.5,19 6.8850001,19 8,17.885 8,16.5 8,15.115 6.8850001,14 5.5,14 Z m 0,1 C 6.3310001,15 7,15.669 7,16.5 7,17.331 6.3310001,18 5.5,18 4.6689999,18 4,17.331 4,16.5 4,15.669 4.6689999,15 5.5,15 Z"
         style="fill:#4d4d4d;fill-opacity:1;stroke:none"
         inkscape:connector-curvature="0" />
      <rect
         ry="0"
         y="1035.3622"
         x="3"
         height="0.9999826"
         width="16"
         id="rect4200"
         style="fill:#4d4d4d;fill-opacity:1;stroke:none" />
      <rect
         y="1046.3622"
         x="7"
         height="0.9999826"
         width="12"
         id="rect4206"
         style="fill:#4d4d4d;fill-opacity:1;stroke:none" />
    </g>
  </g>
</svg>
