/* XPM */
static const char * deldriver_xpm[] = {
"32 32 262 2",
"   c None",
".  c #626262",
"+  c #686868",
"@  c #6E6E6E",
"#  c #646464",
"$  c #898989",
"%  c #A2A2A2",
"&  c #B3B3B3",
"*  c #BDBDBD",
"=  c #C5C5C5",
"-  c #CBCBCB",
";  c #CCCCCC",
">  c #C9C9C9",
",  c #C4C4C4",
"'  c #C3C3C3",
")  c #C2C2C2",
"!  c #BCBCBC",
"~  c #B5B5B5",
"{  c #ADADAD",
"]  c #A6A6A6",
"^  c #9E9E9E",
"/  c #8A8A8A",
"(  c #656565",
"_  c #8D8D8D",
":  c #BEBEBE",
"<  c #D8D8D8",
"[  c #D2D2D2",
"}  c #B9B9B9",
"|  c #A9A9A9",
"1  c #999999",
"2  c #969696",
"3  c #989898",
"4  c #9C9C9C",
"5  c #9F9F9F",
"6  c #979797",
"7  c #909090",
"8  c #9A9A9A",
"9  c #AEAEAE",
"0  c #A7A7A7",
"a  c #8F8F8F",
"b  c #7E7E7E",
"c  c #CFCFCF",
"d  c #B4B4B4",
"e  c #878787",
"f  c #828282",
"g  c #868686",
"h  c #8B8B8B",
"i  c #949494",
"j  c #9D9D9D",
"k  c #A1A1A1",
"l  c #A5A5A5",
"m  c #B0B0B0",
"n  c #B1B1B1",
"o  c #959595",
"p  c #B2B2B2",
"q  c #797979",
"r  c #E1E1E1",
"s  c #838383",
"t  c #888888",
"u  c #8C8C8C",
"v  c #919191",
"w  c #A4A4A4",
"x  c #A8A8A8",
"y  c #ACACAC",
"z  c #B7B7B7",
"A  c #BABABA",
"B  c #929292",
"C  c #AFAFAF",
"D  c #CECECE",
"E  c #858585",
"F  c #848484",
"G  c #8E8E8E",
"H  c #AAAAAA",
"I  c #BBBBBB",
"J  c #BFBFBF",
"K  c #A3A3A3",
"L  c #DCDCDC",
"M  c #939393",
"N  c #ABABAB",
"O  c #C0C0C0",
"P  c #CDCDCD",
"Q  c #D7D7D7",
"R  c #B6B6B6",
"S  c #C8C8C8",
"T  c #C7C7C7",
"U  c #D3D3D3",
"V  c #EAEAEA",
"W  c #F6F6F6",
"X  c #D6D6D6",
"Y  c #F0F0F0",
"Z  c #FBFBFB",
"`  c #FAFAFA",
" . c #F1F1F1",
".. c #E2E2E2",
"+. c #DBDBDB",
"@. c #DADADA",
"#. c #EFEFEF",
"$. c #F7F7F7",
"%. c #F3F3F3",
"&. c #D0D0D0",
"*. c #E8E8E8",
"=. c #EBEBEB",
"-. c #F4F4F4",
";. c #F2F2F2",
">. c #C6C6C6",
",. c #CACACA",
"'. c #DEDEDE",
"). c #DDDDDD",
"!. c #767676",
"~. c #D5D5D5",
"{. c #E7E7E7",
"]. c #C1C1C1",
"^. c #D1D1D1",
"/. c #E3E3E3",
"(. c #B8B8B8",
"_. c #7D7D7D",
":. c #7A7A7A",
"<. c #818181",
"[. c #D4D4D4",
"}. c #DFDFDF",
"|. c #E0E0E0",
"1. c #D9D9D9",
"2. c #7F7F7F",
"3. c #C4AFAF",
"4. c #BF9F9F",
"5. c #C0A0A0",
"6. c #C2A2A2",
"7. c #C4A4A4",
"8. c #C6A6A6",
"9. c #C8A7A7",
"0. c #C9A8A8",
"a. c #CAA9A9",
"b. c #C7A6A6",
"c. c #C3A3A3",
"d. c #C1A1A1",
"e. c #AA8989",
"f. c #937373",
"g. c #B13939",
"h. c #D25151",
"i. c #D46161",
"j. c #D46261",
"k. c #D46361",
"l. c #D46661",
"m. c #D46860",
"n. c #D56A60",
"o. c #D56D60",
"p. c #D2553C",
"q. c #BD1E00",
"r. c #A0A0A0",
"s. c #B53939",
"t. c #F29B9B",
"u. c #F6B9B9",
"v. c #F6B8B8",
"w. c #F6B9B8",
"x. c #F6BAB8",
"y. c #F6BBB8",
"z. c #F7BEB8",
"A. c #F7C0B8",
"B. c #F8C2B8",
"C. c #F8C5B8",
"D. c #F8C7B8",
"E. c #F8C2AC",
"F. c #F5AC88",
"G. c #F18A4F",
"H. c #ED620B",
"I. c #D34402",
"J. c #430707",
"K. c #A42828",
"L. c #EC6666",
"M. c #EE7A7A",
"N. c #EE7B7A",
"O. c #EE7D7A",
"P. c #EF807A",
"Q. c #EF8278",
"R. c #EF8070",
"S. c #EF7F68",
"T. c #EF7F61",
"U. c #EF7E58",
"V. c #EF7B4B",
"W. c #EF753B",
"X. c #EE702A",
"Y. c #ED6711",
"Z. c #ED6400",
"`. c #EF6C00",
" + c #F07600",
".+ c #F17F00",
"++ c #D86614",
"@+ c #AA2E2D",
"#+ c #E00C01",
"$+ c #E21A08",
"%+ c #E42409",
"&+ c #E52C08",
"*+ c #E63104",
"=+ c #E73700",
"-+ c #E84000",
";+ c #E94900",
">+ c #EB5200",
",+ c #EC5B00",
"'+ c #EE6400",
")+ c #EF6D00",
"!+ c #F27F00",
"~+ c #F38800",
"{+ c #F49100",
"]+ c #F69A00",
"^+ c #F7A300",
"/+ c #DC832B",
"(+ c #B64038",
"_+ c #E62E00",
":+ c #EA4900",
"<+ c #F38900",
"[+ c #F49200",
"}+ c #F69B00",
"|+ c #F7A400",
"1+ c #F8AD00",
"2+ c #FAB600",
"3+ c #FBBF00",
"4+ c #FCC800",
"5+ c #DF9B47",
"6+ c #410404",
"7+ c #5A5A5A",
"8+ c #B64639",
"9+ c #E24900",
"0+ c #E45100",
"a+ c #E55900",
"b+ c #E66100",
"c+ c #E76900",
"d+ c #E87200",
"e+ c #EA7A00",
"f+ c #EB8200",
"g+ c #EC8A00",
"h+ c #ED9200",
"i+ c #EE9A00",
"j+ c #F0A200",
"k+ c #F1AA00",
"l+ c #F2B305",
"m+ c #F3BC12",
"n+ c #F4C421",
"o+ c #F5CA36",
"p+ c #F5CE4C",
"q+ c #D89669",
"r+ c #4D4D4D",
"s+ c #BD8F8F",
"t+ c #A86464",
"u+ c #944F4F",
"v+ c #934E4E",
"w+ c #884343",
"x+ c #783434",
"y+ c #7A3535",
"z+ c #823D3D",
"A+ c #833D3D",
"B+ c #660C0C",
"C+ c #6A0000",
"D+ c #4C4C4C",
"E+ c #666666",
"F+ c #9B9B9B",
"G+ c #727272",
"H+ c #4F4F4F",
"I+ c #5C5C5C",
"J+ c #6A6A6A",
"K+ c #777777",
"L+ c #787878",
"M+ c #7B7B7B",
"                        . . + @ + . .                           ",
"            # $ % & * = - ; > , ' ) ! ~ { ] ^ / (               ",
"        _ : < [ } | ^ 1 2 2 3 1 4 ^ 5 5 4 6 7 8 9 0 a           ",
"    b c < d 1 e f f f g h a i 3 j k l | { m & n ] o 6 p e       ",
"  q r ! _ f f f f f s t u v 2 8 5 w x y m d z } A A & B { h     ",
"  C D E f f f f f f F $ G B 6 4 k l H 9 & z I : J J * } $ m     ",
"  K L / f f f f f f F $ G M 3 j % 0 N m ~ } : ) , ' O } 2 *     ",
"  h P Q 3 f f f f f E / a i 3 j % 0 y n R I O , S T & H U F     ",
"  5 p V W X H B F f E / a i 3 j % 0 y n R I : R { z [ A y ~     ",
"  % > Y Z ` Z  ...D } { % ^ ^ 5 k % K N & ! S U P C n +.@.y     ",
"  % ; #.$.$.W %.0 m A ) ; [ [ U [ [ &.' A R & A X *.@.; ; H     ",
"  G > =.-.-.-.;.> S >.>.' ) ) ' >.,.c < '.).< [ ; ; ; ; ' $     ",
"  !.2 r #.Y Y #.; ; ; ; ; ; ; ; ; ; ; ; ; ; ; ; ; ; - y 4 4     ",
"  3 _ A ~...{.V ; ; ; ; ; ; ; ; ; ; ; ; ; ; ; ; I l 0 ) l k     ",
"  k ) D >.: ) T ^ 9 z ! ].' = T = ) : R y N n A ^./.(.| @.R     ",
"  % ; L ).~.> ! _.:.<.u M 1 ^ K H n A ,.).r [.].R I }.|.P &     ",
"  ^ ; +.'.).L 1.: ~ { 0 w w l ] H 9 n d z ].[./.|.~.; ; ; w     ",
"  2.! X @.@.@.1.; - 3.4.5.6.7.8.9.0.a.0.b.c.d.d.d.d.d.d.e.f.    ",
"  i / 9 ; ~.X ~.; ; g.h.i.i.i.i.i.i.i.i.i.i.j.k.l.m.n.o.p.q.    ",
"  r.: 0 3 % R >., - s.t.u.v.v.v.v.w.x.y.z.A.B.C.D.E.F.G.H.I.J.  ",
"  % - P T ~ % 2 <.g K.L.M.N.O.P.Q.R.S.T.U.V.W.X.Y.Z.`. +.+++J.  ",
"  r.; [ [.^.c > z H @+#+$+%+&+*+=+-+;+>+,+'+)+ +!+~+{+]+^+/+J.  ",
"  b , [ [.[.[.[.- ,.(+_+=+-+:+>+,+'+)+ +!+<+[+}+|+1+2+3+4+5+6+  ",
"  7+_.} c [.[.[.; ; 8+9+0+a+b+c+d+e+f+g+h+i+j+k+l+m+n+o+p+q+    ",
"    r+@ 7 9 ) ; - ; s+t+u+u+u+u+u+u+u+u+u+u+v+w+x+y+z+A+B+C+    ",
"        D+E+q h g i r.l | y { { N 0 K F+i u E u 6 M G+          ",
"              H+I+J+G+K+L+q M+2.s e u 7 7 u f @                 ",
"                                                                ",
"                                                                ",
"                                                                ",
"                                                                ",
"                                                                "};
