<?xml version="1.0" encoding="UTF-8" standalone="no"?>
<!-- Created with Inkscape (http://www.inkscape.org/) -->

<svg
   xmlns:dc="http://purl.org/dc/elements/1.1/"
   xmlns:cc="http://creativecommons.org/ns#"
   xmlns:rdf="http://www.w3.org/1999/02/22-rdf-syntax-ns#"
   xmlns:svg="http://www.w3.org/2000/svg"
   xmlns="http://www.w3.org/2000/svg"
   xmlns:sodipodi="http://sodipodi.sourceforge.net/DTD/sodipodi-0.dtd"
   xmlns:inkscape="http://www.inkscape.org/namespaces/inkscape"
   width="32"
   height="32"
   viewBox="0 0 32 32.000001"
   id="svg2"
   version="1.1"
   inkscape:version="0.91 r13725"
   inkscape:export-filename="/home/ling/PKGS/_REPO/kndiswrapper/icons/close.png"
   inkscape:export-xdpi="90"
   inkscape:export-ydpi="90">
  <defs
     id="defs4" />
  <sodipodi:namedview
     id="base"
     pagecolor="#ffffff"
     bordercolor="#666666"
     borderopacity="1.0"
     inkscape:pageopacity="0.0"
     inkscape:pageshadow="2"
     inkscape:zoom="6.56"
     inkscape:cx="22.072473"
     inkscape:cy="13.867683"
     inkscape:document-units="px"
     inkscape:current-layer="layer1"
     showgrid="false"
     units="px"
     inkscape:window-width="1017"
     inkscape:window-height="646"
     inkscape:window-x="313"
     inkscape:window-y="64"
     inkscape:window-maximized="0" />
  <metadata
     id="metadata7">
    <rdf:RDF>
      <cc:Work
         rdf:about="">
        <dc:format>image/svg+xml</dc:format>
        <dc:type
           rdf:resource="http://purl.org/dc/dcmitype/StillImage" />
        <dc:title></dc:title>
      </cc:Work>
    </rdf:RDF>
  </metadata>
  <g
     inkscape:label="Layer 1"
     inkscape:groupmode="layer"
     id="layer1"
     transform="translate(0,-1020.3622)">
    <g
       transform="matrix(1.8384146,0,0,1.8384146,-779.34975,49.512145)"
       id="layer1-9"
       inkscape:label="Capa 1">
      <rect
         y="498.30029"
         x="343.99515"
         height="19.557413"
         width="0"
         id="rect4035"
         style="fill:#4d4d4d;fill-opacity:1;stroke:none" />
      <rect
         y="528.39447"
         x="353.27591"
         height="19.557413"
         width="0"
         id="rect4035-8"
         style="fill:#4d4d4d;fill-opacity:1;stroke:none" />
      <rect
         y="526.98016"
         x="355.69363"
         height="19.557413"
         width="0"
         id="rect4035-0"
         style="fill:#4d4d4d;fill-opacity:1;stroke:none" />
      <rect
         y="493.25864"
         x="321.12015"
         height="19.557413"
         width="0"
         id="rect4035-06"
         style="fill:#4d4d4d;fill-opacity:1;stroke:none" />
      <rect
         y="523.35278"
         x="330.40091"
         height="19.557413"
         width="0"
         id="rect4035-8-7"
         style="fill:#4d4d4d;fill-opacity:1;stroke:none" />
      <rect
         y="521.93848"
         x="332.81863"
         height="19.557413"
         width="0"
         id="rect4035-0-42"
         style="fill:#4d4d4d;fill-opacity:1;stroke:none" />
      <rect
         y="493.25864"
         x="321.12015"
         height="19.557413"
         width="0"
         id="rect4035-3"
         style="fill:#4d4d4d;fill-opacity:1;stroke:none" />
      <rect
         y="523.35278"
         x="330.40091"
         height="19.557413"
         width="0"
         id="rect4035-8-9"
         style="fill:#4d4d4d;fill-opacity:1;stroke:none" />
      <rect
         y="521.93848"
         x="332.81863"
         height="19.557413"
         width="0"
         id="rect4035-0-4"
         style="fill:#4d4d4d;fill-opacity:1;stroke:none" />
      <rect
         y="493.25864"
         x="321.12015"
         height="19.557413"
         width="0"
         id="rect4035-2"
         style="fill:#4d4d4d;fill-opacity:1;stroke:none" />
      <rect
         y="523.35278"
         x="330.40091"
         height="19.557413"
         width="0"
         id="rect4035-8-99"
         style="fill:#4d4d4d;fill-opacity:1;stroke:none" />
      <rect
         y="521.93848"
         x="332.81863"
         height="19.557413"
         width="0"
         id="rect4035-0-43"
         style="fill:#4d4d4d;fill-opacity:1;stroke:none" />
      <rect
         y="493.25864"
         x="321.12015"
         height="19.557413"
         width="0"
         id="rect4035-3-9"
         style="fill:#4d4d4d;fill-opacity:1;stroke:none" />
      <rect
         y="523.35278"
         x="330.40091"
         height="19.557413"
         width="0"
         id="rect4035-8-9-9"
         style="fill:#4d4d4d;fill-opacity:1;stroke:none" />
      <rect
         y="521.93848"
         x="332.81863"
         height="19.557413"
         width="0"
         id="rect4035-0-4-4"
         style="fill:#4d4d4d;fill-opacity:1;stroke:none" />
      <rect
         y="521.64453"
         x="414.81363"
         height="14.666644"
         width="0"
         id="rect4035-5"
         style="fill:#4d4d4d;fill-opacity:1;stroke:none" />
      <rect
         y="525.00336"
         x="408.74429"
         height="14.666644"
         width="0"
         id="rect4035-7"
         style="fill:#4d4d4d;fill-opacity:1;stroke:none" />
      <rect
         y="508.44525"
         x="402.73392"
         height="14.666644"
         width="0"
         id="rect4035-9"
         style="fill:#4d4d4d;fill-opacity:1;stroke:none" />
      <rect
         y="524.76184"
         x="403.85928"
         height="14.666644"
         width="0"
         id="rect4035-96"
         style="fill:#4d4d4d;fill-opacity:1;stroke:none" />
      <rect
         y="528.12061"
         x="397.78995"
         height="14.666644"
         width="0"
         id="rect4035-7-0"
         style="fill:#4d4d4d;fill-opacity:1;stroke:none" />
      <rect
         y="511.5625"
         x="391.77957"
         height="14.666644"
         width="0"
         id="rect4035-9-6"
         style="fill:#4d4d4d;fill-opacity:1;stroke:none" />
      <rect
         y="521.64453"
         x="414.81363"
         height="14.666644"
         width="0"
         id="rect4035-1"
         style="fill:#4d4d4d;fill-opacity:1;stroke:none" />
      <rect
         y="525.00336"
         x="408.74429"
         height="14.666644"
         width="0"
         id="rect4035-7-2"
         style="fill:#4d4d4d;fill-opacity:1;stroke:none" />
      <rect
         y="508.44525"
         x="402.73392"
         height="14.666644"
         width="0"
         id="rect4035-9-0"
         style="fill:#4d4d4d;fill-opacity:1;stroke:none" />
      <rect
         y="524.76184"
         x="403.85928"
         height="14.666644"
         width="0"
         id="rect4035-96-9"
         style="fill:#4d4d4d;fill-opacity:1;stroke:none" />
      <rect
         y="528.12061"
         x="397.78995"
         height="14.666644"
         width="0"
         id="rect4035-7-0-9"
         style="fill:#4d4d4d;fill-opacity:1;stroke:none" />
      <rect
         y="511.5625"
         x="391.77957"
         height="14.666644"
         width="0"
         id="rect4035-9-6-9"
         style="fill:#4d4d4d;fill-opacity:1;stroke:none" />
      <rect
         y="509.90729"
         x="369.0961"
         height="14.668059"
         width="0"
         id="rect4035-70"
         style="fill:#4d4d4d;fill-opacity:1;stroke:none" />
      <rect
         y="532.47791"
         x="376.05667"
         height="14.668059"
         width="0"
         id="rect4035-8-94"
         style="fill:#4d4d4d;fill-opacity:1;stroke:none" />
      <rect
         y="531.41718"
         x="377.86996"
         height="14.668059"
         width="0"
         id="rect4035-0-6"
         style="fill:#4d4d4d;fill-opacity:1;stroke:none" />
      <path
         id="path4146"
         d="m 432.71429,528.79074 a 8,3.0000005 0 0 0 -8,3 l 0,10 a 8,3.0000005 0 0 0 8,3 8,3.0000005 0 0 0 8,-3 l 0,-10 a 8,3.0000005 0 0 0 -8,-3 z m 0,1 a 7,2 0 0 1 7,2 7,2 0 0 1 -7,2 7,2 0 0 1 -7,-2 7,2 0 0 1 7,-2 z m 7,3.44531 0,3.55469 a 7,2 0 0 1 -7,2 7,2 0 0 1 -7,-2 l 0,-3.54883 a 8,3.0000005 0 0 0 7,1.54883 8,3.0000005 0 0 0 7,-1.55469 z m 0,5 0,3.55469 a 7,2 0 0 1 -7,2 7,2 0 0 1 -7,-2 l 0,-3.54883 a 8,3.0000005 0 0 0 7,1.54883 8,3.0000005 0 0 0 7,-1.55469 z"
         style="fill:#4d4d4d;fill-opacity:1;stroke:none;stroke-width:2;stroke-miterlimit:4;stroke-dasharray:none"
         inkscape:connector-curvature="0" />
    </g>
    <path
       style="fill:#da4453;fill-opacity:1;stroke:none"
       d="m 23.548319,1036.2573 c -3.974179,-0.021 -7.348942,3.9013 -6.726233,7.8285 0.385518,3.841 4.403355,6.7582 8.175506,5.9326 3.889951,-0.6275 6.57629,-4.9675 5.385943,-8.7264 -0.816932,-2.9881 -3.735061,-5.145 -6.835216,-5.0347 z m 0.168818,1.6869 c 3.338074,-0.1137 6.081088,3.48 5.045743,6.6716 -0.243708,0.7142 -0.718747,2.2946 -1.418567,1.0154 -2.229946,-2.23 -4.459892,-4.4599 -6.689838,-6.6899 0.881512,-0.6466 1.968963,-1.0031 3.062662,-0.9971 z m 3.04343,9.5094 c -2.644646,2.0927 -6.953929,0.7187 -7.989591,-2.454 -0.594565,-1.5986 -0.341625,-3.4841 0.679974,-4.8552 2.436539,2.4364 4.873078,4.8728 7.309617,7.3092 z"
       id="rect4203"
       inkscape:connector-curvature="0" />
  </g>
</svg>
