/* XPM */
static const char * done_xpm[] = {
"32 32 55 1",
"   c None",
".  c #808080",
"+  c #606060",
"@  c #080808",
"#  c #000000",
"$  c #282828",
"%  c #474747",
"&  c #1E1E1E",
"*  c #020202",
"=  c #525252",
"-  c #232323",
";  c #686868",
">  c #101010",
",  c #050505",
"'  c #2C2C2C",
")  c #3C3C3C",
"!  c #636363",
"~  c #595959",
"{  c #3A3A3A",
"]  c #090909",
"^  c #0E0E0E",
"/  c #343434",
"(  c #5B5B5B",
"_  c #404040",
":  c #292929",
"<  c #787878",
"[  c #696969",
"}  c #727272",
"|  c #202020",
"1  c #0C0C0C",
"2  c #383838",
"3  c #707070",
"4  c #181818",
"5  c #5A5A5A",
"6  c #5D5D5D",
"7  c #3F3F3F",
"8  c #262626",
"9  c #4A4A4A",
"0  c #565656",
"a  c #313131",
"b  c #0A0A0A",
"c  c #242424",
"d  c #4D4D4D",
"e  c #303030",
"f  c #7E7E7E",
"g  c #363636",
"h  c #040404",
"i  c #1A1A1A",
"j  c #494949",
"k  c #0F0F0F",
"l  c #626262",
"m  c #505050",
"n  c #444444",
"o  c #2D2D2D",
"p  c #585858",
"                                ",
"                                ",
"                                ",
"                                ",
"                                ",
"                                ",
"                                ",
"                                ",
"                   .+@#$.       ",
"                  .%&*#$.       ",
"                  =-###$.       ",
"                .;>###,'.       ",
"                .;>###)!        ",
"                ~{]#^/(         ",
"               ._##]:<          ",
"               ._##{[           ",
"        ..    }%|12~            ",
"        ;<.   34#43             ",
"      .5>6.   34#43             ",
"       7#89..0abcd}             ",
"        ##ef;ghij.              ",
"         #e<8hkl<               ",
"         mno1-=                 ",
"          n##2.                 ",
"           ##2.                 ",
"           pp+                  ",
"           ..                   ",
"                                ",
"                                ",
"                                ",
"                                ",
"                                "};

