/* XPM */
static const char * export_xpm[] = {
"32 32 423 2",
"   c None",
".  c #FFAE00",
"+  c #FBA800",
"@  c #FFCC2D",
"#  c #FFF05A",
"$  c #FFB307",
"%  c #FAB013",
"&  c #F09C00",
"*  c #FFC223",
"=  c #FFF06A",
"-  c #FFFF78",
";  c #FFFF6E",
">  c #FFDA3A",
",  c #EFA300",
"'  c #FBA700",
")  c #FCC73B",
"!  c #FFFF92",
"~  c #FACE40",
"{  c #EB9400",
"]  c #FFBD1F",
"^  c #FFEB73",
"/  c #FFFF8E",
"(  c #FFFF82",
"_  c #FFFF76",
":  c #FFFF6C",
"<  c #FFFA64",
"[  c #FFB70C",
"}  c #FCC73E",
"|  c #FFFF99",
"1  c #FFFF88",
"2  c #F9D643",
"3  c #E98E00",
"4  c #FFB817",
"5  c #FFE16F",
"6  c #FFFFA5",
"7  c #FFFF98",
"8  c #FFFF8B",
"9  c #FFFF7F",
"0  c #FFFF74",
"a  c #FFFE6A",
"b  c #FFF962",
"c  c #FED434",
"d  c #FBC740",
"e  c #FFFFA0",
"f  c #FFFF8F",
"g  c #FFFF7E",
"h  c #FFFF70",
"i  c #F8D23D",
"j  c #E88E05",
"k  c #FFB30D",
"l  c #FFD764",
"m  c #FFFFBD",
"n  c #FFFFAF",
"o  c #FFFFA2",
"p  c #FFFF95",
"q  c #FFFF89",
"r  c #FFFF7D",
"s  c #FFFF72",
"t  c #FFF45C",
"u  c #FEBF19",
"v  c #FCB009",
"w  c #FBB10D",
"x  c #F8B21F",
"y  c #FDEC79",
"z  c #FFFF85",
"A  c #FFFF75",
"B  c #FFFD68",
"C  c #FFF55E",
"D  c #FFED53",
"E  c #FAD33B",
"F  c #E38604",
"G  c #FFC238",
"H  c #FFFAC8",
"I  c #FFFFC8",
"J  c #FFFFBA",
"K  c #FFFFAD",
"L  c #FFFF93",
"M  c #FFFF86",
"N  c #FFF56C",
"O  c #FFCC2A",
"P  c #FEAF04",
"Q  c #FDC522",
"R  c #FFE74B",
"S  c #FFC723",
"T  c #FBB10E",
"U  c #F29E09",
"V  c #FCEB64",
"W  c #FFFF6D",
"X  c #FFF057",
"Y  c #FFE84D",
"Z  c #FFE042",
"`  c #FBCC30",
" . c #E38809",
".. c #D06F00",
"+. c #FDB20F",
"@. c #FFF5B8",
"#. c #FFFFC5",
"$. c #FFFFB7",
"%. c #FFFFAA",
"&. c #FFFF9D",
"*. c #FFFA88",
"=. c #FFD743",
"-. c #FFB308",
";. c #FFC11B",
">. c #FFD93A",
",. c #FFE447",
"'. c #FFEC51",
"). c #FFCE2B",
"!. c #FFC41F",
"~. c #F9B416",
"{. c #EE9B09",
"]. c #F7D240",
"^. c #FFF45B",
"/. c #FFEB51",
"(. c #FFE346",
"_. c #FFDB3B",
":. c #FFD231",
"<. c #FDC524",
"[. c #DF8005",
"}. c #C56400",
"|. c #F9AA00",
"1. c #FFCC4D",
"2. c #FFFFC2",
"3. c #FFFFB5",
"4. c #FFFFA8",
"5. c #FFDC58",
"6. c #FFB309",
"7. c #FFB90F",
"8. c #FFCD2A",
"9. c #FFD939",
"0. c #FFE143",
"a. c #FFE94D",
"b. c #FFD433",
"c. c #FFCB28",
"d. c #FFCD2B",
"e. c #FBC326",
"f. c #E88C03",
"g. c #F5C635",
"h. c #FFE64A",
"i. c #FFDE40",
"j. c #FFD635",
"k. c #FFC520",
"l. c #FFBD15",
"m. c #E08004",
"n. c #C55F00",
"o. c #FDAD00",
"p. c #FFEB8F",
"q. c #FFE170",
"r. c #FFB815",
"s. c #FFC31C",
"t. c #FFCE2C",
"u. c #FFD636",
"v. c #FFDE3F",
"w. c #FFE649",
"x. c #FFF55D",
"y. c #FFDA3B",
"z. c #FFD434",
"A. c #FFD737",
"B. c #FACA2F",
"C. c #E7910C",
"D. c #EBA119",
"E. c #FFD02F",
"F. c #FFC824",
"G. c #FFC019",
"H. c #F6A90D",
"I. c #D26801",
"J. c #9A4900",
"K. c #FFBD2C",
"L. c #FFB30C",
"M. c #FFB003",
"N. c #FFB910",
"O. c #FFC41E",
"P. c #FFD332",
"Q. c #FFDB3C",
"R. c #FFE345",
"S. c #FFEA4F",
"T. c #FFF259",
"U. c #FFFA63",
"V. c #FFE144",
"W. c #FFDC3D",
"X. c #FFE043",
"Y. c #FDDC42",
"Z. c #E28C0E",
"`. c #E79713",
" + c #FFCC28",
".+ c #FFC31E",
"++ c #F6AB10",
"@+ c #EDA200",
"#+ c #FFBD2A",
"$+ c #FFF5B4",
"%+ c #FFF096",
"&+ c #FFCC3E",
"*+ c #FFBF18",
"=+ c #FFD02E",
"-+ c #FFD838",
";+ c #FFDF42",
">+ c #FFEF55",
",+ c #FFF75F",
"'+ c #FFFE6B",
")+ c #FFE64E",
"!+ c #FFE549",
"~+ c #FFE74C",
"{+ c #FDE54D",
"]+ c #E69F20",
"^+ c #DC7C06",
"/+ c #F3A912",
"(+ c #FFF088",
"_+ c #FFCC31",
":+ c #FDB006",
"<+ c #FEC825",
"[+ c #FFD534",
"}+ c #FFDC3E",
"|+ c #FFE448",
"1+ c #FFFB65",
"2+ c #FFEB59",
"3+ c #FFEC52",
"4+ c #FFEE55",
"5+ c #FFF158",
"6+ c #FFF35B",
"7+ c #FFF65E",
"8+ c #DA8212",
"9+ c #CF6300",
"0+ c #CA5E00",
"a+ c #AE4E00",
"b+ c #B95000",
"c+ c #FFEB64",
"d+ c #FDDC40",
"e+ c #F8A603",
"f+ c #FDCF2F",
"g+ c #FFF157",
"h+ c #FFF861",
"i+ c #FFFE6F",
"j+ c #FFFF8A",
"k+ c #FFF165",
"l+ c #FFEE54",
"m+ c #FFF35A",
"n+ c #F1CC44",
"o+ c #D7790C",
"p+ c #DB820F",
"q+ c #F0B023",
"r+ c #F2B01E",
"s+ c #EEA114",
"t+ c #DE8008",
"u+ c #C24F00",
"v+ c #BF4B00",
"w+ c #FDAA00",
"x+ c #FDDC41",
"y+ c #FBCE32",
"z+ c #F39F04",
"A+ c #FCD73C",
"B+ c #FEF993",
"C+ c #F8D248",
"D+ c #FFF760",
"E+ c #F5D84C",
"F+ c #DE8F1A",
"G+ c #DA8110",
"H+ c #F3C739",
"I+ c #FFDF41",
"J+ c #FBC527",
"K+ c #E18B0F",
"L+ c #C65601",
"M+ c #A64200",
"N+ c #FBA801",
"O+ c #F8A301",
"P+ c #FBCF33",
"Q+ c #FBC92C",
"R+ c #EE9603",
"S+ c #F7CD38",
"T+ c #FEF86B",
"U+ c #F6CB45",
"V+ c #EE9E0A",
"W+ c #ED9700",
"X+ c #F4BD26",
"Y+ c #FAEC5C",
"Z+ c #E0921A",
"`+ c #D97E0E",
" @ c #EEC440",
".@ c #C85A03",
"+@ c #AD4800",
"@@ c #FAA804",
"#@ c #FEB60F",
"$@ c #F5A004",
"%@ c #F6B016",
"&@ c #FFD230",
"*@ c #FBBE1E",
"=@ c #E98D02",
"-@ c #F2BD2E",
";@ c #EFA40F",
">@ c #EB9300",
",@ c #E07F00",
"'@ c #D97709",
")@ c #EAB543",
"!@ c #EBB432",
"~@ c #CE6809",
"{@ c #C45200",
"]@ c #F8A707",
"^@ c #FFC21C",
"/@ c #FEC01B",
"(@ c #F09C06",
"_@ c #EE9908",
":@ c #F3A60F",
"<@ c #F4A209",
"[@ c #E68800",
"}@ c #E58700",
"|@ c #EC9500",
"1@ c #E48600",
"2@ c #DC7D0C",
"3@ c #EBB758",
"4@ c #FCF693",
"5@ c #FFFF79",
"6@ c #F2D650",
"7@ c #D68118",
"8@ c #D57005",
"9@ c #F19F0C",
"0@ c #C24E00",
"a@ c #F6A70A",
"b@ c #FFCB27",
"c@ c #F9BD1F",
"d@ c #F3AB16",
"e@ c #EC9B0E",
"f@ c #E28303",
"g@ c #DE7A00",
"h@ c #DB7600",
"i@ c #D87200",
"j@ c #E5A44A",
"k@ c #EEC76F",
"l@ c #F3D878",
"m@ c #EFCD62",
"n@ c #D88620",
"o@ c #D06804",
"p@ c #EA9A12",
"q@ c #FFC01A",
"r@ c #BF4A00",
"s@ c #F4A60D",
"t@ c #FFD535",
"u@ c #FBCA2F",
"v@ c #F6C343",
"w@ c #F2B11F",
"x@ c #E99D16",
"y@ c #E89B16",
"z@ c #DB7E0B",
"A@ c #D97A0B",
"B@ c #E89B17",
"C@ c #FFCA26",
"D@ c #FFC925",
"E@ c #BC4600",
"F@ c #F2A50F",
"G@ c #FFDD3E",
"H@ c #FFDD3F",
"I@ c #FFE360",
"J@ c #FFD130",
"K@ c #FFD12F",
"L@ c #BB4400",
"M@ c #EE9C0F",
"N@ c #FFE04C",
"O@ c #FFE64B",
"P@ c #FFE968",
"Q@ c #E78900",
"R@ c #EFA521",
"S@ c #FFE756",
"T@ c #FFEF56",
"U@ c #FFEF70",
"V@ c #FFE548",
"W@ c #FFE347",
"X@ c #FFE245",
"Y@ c #D27800",
"Z@ c #E69012",
"`@ c #FDE45A",
" # c #FFF578",
".# c #FFED54",
"+# c #FFEB50",
"@# c #FFE54F",
"## c #EEB53E",
"$# c #CD7000",
"%# c #E18A12",
"&# c #FDE55F",
"*# c #FFFD6D",
"=# c #FFFF6F",
"-# c #FFFB80",
";# c #FFF65F",
"># c #FFEB58",
",# c #F7CC4C",
"'# c #CC6A16",
")# c #B64200",
"!# c #C06500",
"~# c #D87406",
"{# c #F7CC58",
"]# c #FFFD81",
"^# c #FFFF84",
"/# c #FFFE69",
"(# c #FFFD69",
"_# c #FFFC67",
":# c #FFF361",
"<# c #F7CE4F",
"[# c #D57C20",
"}# c #B94300",
"|# c #9C3900",
"1# c #D36C07",
"2# c #F6C761",
"3# c #FFF792",
"4# c #FFFF9C",
"5# c #FFFF9A",
"6# c #FFFF7A",
"7# c #FFF46F",
"8# c #FBD659",
"9# c #DD8D2B",
"0# c #C95C00",
"a# c #EAA64D",
"b# c #FFF6A8",
"c# c #FFF282",
"d# c #FBD263",
"e# c #DD8A2E",
"f# c #BF4D06",
"g# c #A73D00",
"h# c #C45400",
"i# c #E59446",
"j# c #FFD181",
"k# c #E6983F",
"l# c #C04D06",
"m# c #AF4000",
"n# c #BE4B00",
"o# c #C25008",
"p# c #B04100",
"                        . . .           +                       ",
"                      . @ # $         + % &                     ",
"                  . * = - ; > ,     ' ) ! ~ {                   ",
"              . ] ^ / ( _ : < [   ' } | 1 - 2 3                 ",
"          . 4 5 6 7 8 9 0 a b c + d e f g h < i j               ",
"      . k l m n o p q r s t u v w x y z A B C D E F             ",
"    . G H I J K e L M N O P Q R S T U V W b X Y Z `  ...        ",
"      +.@.#.$.%.&.*.=.-.;.>.,.'.).!.~.{.].^./.(._.:.<.[.}.      ",
"      |.1.2.3.4.5.6.7.8.9.0.a.X b.c.d.e.f.g.h.i.j.8.k.l.m.n.    ",
".       o.p.q.r.$ s.t.u.v.w.D x.y.:.z.A.B.C.D.9.E.F.G.H.I.J.    ",
". . K.. . L.M.N.O.c.P.Q.R.S.T.U.V.>.W.i.X.Y.Z.`. +.+++I.J.      ",
"  @+#+$+%+&+M.*+F.=+-+;+R >+,+'+)+Z (.!+~+S.{+]+^+/+I.J.        ",
"      L.(+p _+:+<+[+}+|+'.^.1+- 2+R S.3+4+5+6+7+8+9+0+a+b+      ",
"        6.c+0 d+e+f+V.a.g+h+i+j+k+l+X m+x.h+n+o+p+q+r+s+t+u+v+  ",
"          w+x+t y+z+A+l+x.B g B+C+x.D+U.E+F+G+H+I+u.J+K+L+M+    ",
"          N+O+P+(.Q+R+S+U.T+U+V+W+X+Y+Z+`+ @6+S.0.]+.@+@        ",
"          @@#@$@%@&@*@=@-@;@W+W+>@,@'@)@_ B t !@~@{@            ",
"          ]@^@/@(@_@:@<@[@}@|@1@2@3@4@8 5@6@7@8@9@0@            ",
"          a@b@c.c.c@d@e@f@g@h@i@j@k@l@m@n@o@p@q@G.r@            ",
"          s@P.b.b.z.[+t@j.u@v@w@x@y@z@A@B@C@D@F.F.E@            ",
"          F@}+G@G@H@v.i.i.I+I@j.[+z.b.P.:.&@J@K@=+L@            ",
"          M@N@!+h.h.O@R R ~+P@i.H@G@W.Q.Q.y.>.9.-+L@            ",
"          Q@R@S@4+>+T@T@X X U@h.!+V@|+W@(.X@V.0.X.L@            ",
"            Y@Z@`@h+h+h+b b  #l+.#D 3+/.+#S.S.@###L@            ",
"              $#%#&#*#; =#h -#;#7+x.t t 6+>#,#'#)#              ",
"                !#~#{#]#^#z 8 /#(#B _#:#<#[#}#|#                ",
"                    1#2#3#4#5#6#5@7#8#9#L@|#                    ",
"                      0#a#b#%.c#d#e#f#g#                        ",
"                        h#i#j#k#l#m#                            ",
"                          n#o#p#                                ",
"                                                                ",
"                                                                "};
