<?xml version="1.0" encoding="UTF-8" standalone="no"?>
<!-- Created with Inkscape (http://www.inkscape.org/) -->

<svg
   xmlns:dc="http://purl.org/dc/elements/1.1/"
   xmlns:cc="http://creativecommons.org/ns#"
   xmlns:rdf="http://www.w3.org/1999/02/22-rdf-syntax-ns#"
   xmlns:svg="http://www.w3.org/2000/svg"
   xmlns="http://www.w3.org/2000/svg"
   xmlns:sodipodi="http://sodipodi.sourceforge.net/DTD/sodipodi-0.dtd"
   xmlns:inkscape="http://www.inkscape.org/namespaces/inkscape"
   width="440"
   height="40"
   viewBox="0 0 440.00001 40"
   id="svg2"
   version="1.1"
   inkscape:version="0.91 r13725"
   sodipodi:docname="kndiswrapper_logo.svg">
  <defs
     id="defs4" />
  <sodipodi:namedview
     id="base"
     pagecolor="#ffffff"
     bordercolor="#666666"
     borderopacity="1.0"
     inkscape:pageopacity="0.0"
     inkscape:pageshadow="2"
     inkscape:zoom="0.76"
     inkscape:cx="200.82266"
     inkscape:cy="3.0967829"
     inkscape:document-units="px"
     inkscape:current-layer="layer1"
     showgrid="false"
     units="px"
     inkscape:window-width="909"
     inkscape:window-height="598"
     inkscape:window-x="449"
     inkscape:window-y="137"
     inkscape:window-maximized="0" />
  <metadata
     id="metadata7">
    <rdf:RDF>
      <cc:Work
         rdf:about="">
        <dc:format>image/svg+xml</dc:format>
        <dc:type
           rdf:resource="http://purl.org/dc/dcmitype/StillImage" />
        <dc:title />
      </cc:Work>
    </rdf:RDF>
  </metadata>
  <g
     inkscape:label="Layer 1"
     inkscape:groupmode="layer"
     id="layer1"
     transform="translate(0,-1012.3622)">
    <g
       style="font-style:normal;font-weight:normal;font-size:40px;line-height:125%;font-family:sans-serif;letter-spacing:0px;word-spacing:0px;fill:#4d4d4d;fill-opacity:1;stroke:none;stroke-width:1px;stroke-linecap:butt;stroke-linejoin:miter;stroke-opacity:1"
       id="text3336">
      <path
         d="m 61.247021,1048.5443 4.375,0 1.347656,-12.6758 2.1875,-3.457 4.902344,16.1328 4.257812,0 -5.605469,-18.1445 7.929688,-14.2383 -4.0625,0 -9.160156,15.4297 1.601562,-15.4297 -4.375,0 -3.398437,32.3828 z"
         style="font-style:italic;font-variant:normal;font-weight:normal;font-stretch:normal;font-family:Impact;-inkscape-font-specification:'Impact Italic'"
         id="path4136" />
      <path
         d="m 80.934521,1048.5443 3.691406,0 2.382812,-22.4609 7.070313,22.4609 2.832031,0 3.398437,-32.3828 -3.671874,0 -2.285157,21.8555 -7.011718,-21.8555 -3.007813,0 -3.398437,32.3828 z"
         style="font-style:italic;font-variant:normal;font-weight:normal;font-stretch:normal;font-family:Impact;-inkscape-font-specification:'Impact Italic'"
         id="path4138" />
      <path
         d="m 102.02827,1048.5443 7.38281,0 c 6.75782,0 9.55078,-3.7305 10.27344,-10.5273 l 1.25,-12.0118 c 0.68359,-6.4843 -1.28906,-9.8437 -8.45703,-9.8437 l -7.05078,0 -3.39844,32.3828 z m 4.72656,-3.1445 2.71485,-25.9961 2.59765,0 c 4.66797,0 4.92188,2.1484 4.41407,7.1094 l -1.13282,10.6836 c -0.54687,5.1757 -0.95703,8.2031 -5.91797,8.2031 l -2.67578,0 z"
         style="font-style:italic;font-variant:normal;font-weight:normal;font-stretch:normal;font-family:Impact;-inkscape-font-specification:'Impact Italic'"
         id="path4140" />
      <path
         d="m 123.3564,1048.5443 4.27734,0 3.39844,-32.3828 -4.27735,0 -3.39843,32.3828 z"
         style="font-style:italic;font-variant:normal;font-weight:normal;font-stretch:normal;font-family:Impact;-inkscape-font-specification:'Impact Italic'"
         id="path4142" />
      <path
         d="m 140.4853,1048.8959 c 4.53125,0 8.02735,-2.8516 8.53516,-7.6758 0.41015,-4.0039 -1.50391,-6.8359 -3.71094,-9.0625 l -4.98047,-4.8633 c -1.34765,-1.3867 -1.85547,-2.5 -1.67969,-4.4336 0.25391,-2.4219 1.75782,-3.4765 4.08204,-3.6133 3.39843,-0.2148 3.88671,2.6953 3.75,5.9766 l 3.80859,-1.0156 c 0.0977,-5.7032 -2.01172,-8.4375 -7.22656,-8.3789 -4.62891,0.059 -7.8711,2.7343 -8.35938,7.4414 -0.35156,3.1836 0.48828,5.1953 2.38281,7.1093 l 4.94141,4.8829 c 1.83594,1.8945 3.20313,3.3984 2.89063,6.3086 -0.25391,2.5585 -1.67969,3.8867 -4.0625,3.8867 -3.51563,0 -4.08204,-3.4571 -3.94532,-6.9727 l -4.0039,1.0547 c -0.25391,5.5664 1.97265,9.3555 7.57812,9.3555 z"
         style="font-style:italic;font-variant:normal;font-weight:normal;font-stretch:normal;font-family:Impact;-inkscape-font-specification:'Impact Italic'"
         id="path4144" />
      <path
         d="m 156.05171,1048.5443 3.33984,0 7.16797,-24.2578 2.03125,24.2578 3.18359,0 8.61329,-32.3828 -3.59375,0 -5.91797,23.6719 -1.99219,-23.5352 -3.10547,0 -6.89453,23.457 -1.05469,-23.5937 -3.6914,0 1.91406,32.3828 z"
         style="font-style:italic;font-variant:normal;font-weight:normal;font-stretch:normal;font-family:Impact;-inkscape-font-specification:'Impact Italic'"
         id="path4146" />
      <path
         d="m 187.34077,1030.1459 1.13281,-10.8399 2.20703,0 c 4.1211,0 5,1.5625 4.60938,5.3907 -0.44922,4.1796 -2.14844,5.4492 -6.01563,5.4492 l -1.93359,0 z m -6.32812,18.3984 4.375,0 1.62109,-15.2734 3.65234,0 2.69532,15.2734 4.23828,0 -2.94922,-16.2695 c 3.00781,-0.918 4.45312,-3.7891 4.86328,-7.5781 0.625,-6.0547 -2.07031,-8.5352 -8.47656,-8.5352 l -6.6211,0 -3.39843,32.3828 z"
         style="font-style:italic;font-variant:normal;font-weight:normal;font-stretch:normal;font-family:Impact;-inkscape-font-specification:'Impact Italic'"
         id="path4148" />
      <path
         d="m 207.39936,1037.1967 4.33594,-14.9024 1.23047,14.9024 -5.56641,0 z m -7.46093,11.3476 4.16015,0 2.40235,-8.2226 6.69922,0 0.625,8.2226 4.17968,0 -3.51562,-32.3828 -4.23828,0 -10.3125,32.3828 z"
         style="font-style:italic;font-variant:normal;font-weight:normal;font-stretch:normal;font-family:Impact;-inkscape-font-specification:'Impact Italic'"
         id="path4150" />
      <path
         d="m 227.63374,1030.3021 1.15234,-10.9961 2.30469,0 c 4.51172,0 5.03906,1.1524 4.53125,5.7813 -0.41016,4.082 -1.85547,5.2148 -5.76172,5.2148 l -2.22656,0 z m -6.30859,18.2422 4.375,0 1.60156,-15.0976 3.65234,0 c 5.33203,0 8.30078,-3.2618 8.84766,-8.379 0.58594,-5.5859 -1.26953,-8.9062 -7.05078,-8.9062 l -8.02735,0 -3.39843,32.3828 z"
         style="font-style:italic;font-variant:normal;font-weight:normal;font-stretch:normal;font-family:Impact;-inkscape-font-specification:'Impact Italic'"
         id="path4152" />
      <path
         d="m 246.85249,1030.3021 1.15234,-10.9961 2.30469,0 c 4.51172,0 5.03906,1.1524 4.53125,5.7813 -0.41016,4.082 -1.85547,5.2148 -5.76172,5.2148 l -2.22656,0 z m -6.30859,18.2422 4.375,0 1.60156,-15.0976 3.65234,0 c 5.33203,0 8.30078,-3.2618 8.84766,-8.379 0.58594,-5.5859 -1.26953,-8.9062 -7.05078,-8.9062 l -8.02735,0 -3.39843,32.3828 z"
         style="font-style:italic;font-variant:normal;font-weight:normal;font-stretch:normal;font-family:Impact;-inkscape-font-specification:'Impact Italic'"
         id="path4154" />
      <path
         d="m 259.76265,1048.5443 12.55859,0 0.35156,-3.1445 -8.20312,0 1.26953,-12.0117 6.58203,0 0.3125,-3.1446 -6.58203,0 1.15234,-10.8398 8.08594,0 0.33203,-3.2422 -12.46094,0 -3.39843,32.3828 z"
         style="font-style:italic;font-variant:normal;font-weight:normal;font-stretch:normal;font-family:Impact;-inkscape-font-specification:'Impact Italic'"
         id="path4156" />
      <path
         d="m 282.34077,1030.1459 1.13281,-10.8399 2.20703,0 c 4.1211,0 5,1.5625 4.60938,5.3907 -0.44922,4.1796 -2.14844,5.4492 -6.01563,5.4492 l -1.93359,0 z m -6.32812,18.3984 4.375,0 1.62109,-15.2734 3.65234,0 2.69532,15.2734 4.23828,0 -2.94922,-16.2695 c 3.00781,-0.918 4.45312,-3.7891 4.86328,-7.5781 0.625,-6.0547 -2.07031,-8.5352 -8.47656,-8.5352 l -6.6211,0 -3.39843,32.3828 z"
         style="font-style:italic;font-variant:normal;font-weight:normal;font-stretch:normal;font-family:Impact;-inkscape-font-specification:'Impact Italic'"
         id="path4158" />
      <path
         d="m 313.18061,1048.8959 c 5.56641,0 8.4375,-3.9649 9.02344,-9.5703 l 1.44531,-13.9258 c 0.60547,-5.7031 -1.40625,-9.5703 -6.99218,-9.5703 -5.625,0 -8.39844,3.8672 -9.00391,9.5703 l -1.44531,13.9258 c -0.58594,5.5664 1.44531,9.5703 6.97265,9.5703 z m 0.3711,-3.3985 c -3.04688,0 -3.51563,-3.0078 -3.1836,-6.0937 l 1.46485,-14.082 c 0.33203,-3.2032 1.30859,-6.0938 4.47265,-6.0938 3.16407,0 3.4961,2.8906 3.16407,6.0938 l -1.46485,14.082 c -0.33203,3.0859 -1.38672,6.0937 -4.45312,6.0937 z"
         style="font-style:italic;font-variant:normal;font-weight:normal;font-stretch:normal;font-family:Impact;-inkscape-font-specification:'Impact Italic'"
         id="path4160" />
      <path
         d="m 325.21186,1048.5443 4.19922,0 0.48828,-4.707 -4.17968,0 -0.50782,4.707 z"
         style="font-style:italic;font-variant:normal;font-weight:normal;font-stretch:normal;font-family:Impact;-inkscape-font-specification:'Impact Italic'"
         id="path4162" />
      <path
         d="m 337.86811,1036.0052 6.73829,-14.5703 -1.54297,14.5703 -5.19532,0 z m 3.88672,12.5391 4.16016,0 0.89844,-8.6133 3.61328,0 0.41015,-3.9258 -3.61328,0 2.08985,-19.8632 -5.13672,0 -10.41016,19.1992 -0.48828,4.5898 9.39453,0 -0.91797,8.6133 z"
         style="font-style:italic;font-variant:normal;font-weight:normal;font-stretch:normal;font-family:Impact;-inkscape-font-specification:'Impact Italic'"
         id="path4164" />
      <path
         d="m 352.71186,1048.5443 4.19922,0 0.48828,-4.707 -4.17968,0 -0.50782,4.707 z"
         style="font-style:italic;font-variant:normal;font-weight:normal;font-stretch:normal;font-family:Impact;-inkscape-font-specification:'Impact Italic'"
         id="path4166" />
      <path
         d="m 368.18061,1048.8959 c 5.56641,0 8.4375,-3.9649 9.02344,-9.5703 l 1.44531,-13.9258 c 0.60547,-5.7031 -1.40625,-9.5703 -6.99218,-9.5703 -5.625,0 -8.39844,3.8672 -9.00391,9.5703 l -1.44531,13.9258 c -0.58594,5.5664 1.44531,9.5703 6.97265,9.5703 z m 0.3711,-3.3985 c -3.04688,0 -3.51563,-3.0078 -3.1836,-6.0937 l 1.46485,-14.082 c 0.33203,-3.2032 1.30859,-6.0938 4.47265,-6.0938 3.16407,0 3.4961,2.8906 3.16407,6.0938 l -1.46485,14.082 c -0.33203,3.0859 -1.38672,6.0937 -4.45312,6.0937 z"
         style="font-style:italic;font-variant:normal;font-weight:normal;font-stretch:normal;font-family:Impact;-inkscape-font-specification:'Impact Italic'"
         id="path4168" />
    </g>
  </g>
</svg>
