/* XPM */
    static const char * kndiswrapper_ok_xpm[] = {
        "32 32 288 2",
        "   c None",
        ".  c #96EF7B",
        "+  c #4E4E4E",
        "@  c #4F4F4F",
        "#  c #505050",
        "$  c #444444",
        "%  c #404040",
        "&  c #D1D1D1",
        "*  c #EDEDED",
        "=  c #E4E4E4",
        "-  c #E2E2E2",
        ";  c #E1E1E1",
        ">  c #E0E0E0",
        ",  c #DEDEDE",
        "'  c #DCDCDC",
        ")  c #DBDBDB",
        "!  c #D8D8D8",
        "~  c #C8C8C8",
        "{  c #545454",
        "]  c #434343",
        "^  c #F2F2F2",
        "/  c #757575",
        "(  c #464648",
        "_  c #3B3A3E",
        ":  c #434245",
        "<  c #464547",
        "[  c #39383D",
        "}  c #474748",
        "|  c #4C4C4C",
        "1  c #5D5E5E",
        "2  c #E9E9E9",
        "3  c #616161",
        "4  c #E7E7E7",
        "5  c #CFD1D4",
        "6  c #C3C3CA",
        "7  c #D0D2D5",
        "8  c #D3D4D7",
        "9  c #D7D7DE",
        "0  c #ECECEE",
        "a  c #CBCECE",
        "b  c #4B4C4C",
        "c  c #E3E3E3",
        "d  c #C8CBCB",
        "e  c #D0D3D3",
        "f  c #D3D6D6",
        "g  c #CED1D1",
        "h  c #E4E4E7",
        "i  c #E5E5E7",
        "j  c #B2B5B5",
        "k  c #414242",
        "l  c #606060",
        "m  c #E6E6E6",
        "n  c #3F4040",
        "o  c #C5C8C8",
        "p  c #CDD0D0",
        "q  c #EAEAEC",
        "r  c #EAEBEC",
        "s  c #B1B4B4",
        "t  c #E5E5E5",
        "u  c #3E3F3F",
        "v  c #BFC3C3",
        "w  c #C3C7C7",
        "x  c #C4C7C7",
        "y  c #E3E3E4",
        "z  c #ACB0B1",
        "A  c #404141",
        "B  c #5F5F5F",
        "C  c #3D3D3D",
        "D  c #B8BCBC",
        "E  c #BBBFBF",
        "F  c #B9BCBC",
        "G  c #939696",
        "H  c #5A5C5C",
        "I  c #575959",
        "J  c #545555",
        "K  c #1F1F1F",
        "L  c #6E6E6E",
        "M  c #2E2E2E",
        "N  c #000000",
        "O  c #777777",
        "P  c #444545",
        "Q  c #454545",
        "R  c #333434",
        "S  c #676767",
        "T  c #C1C1C1",
        "U  c #CBCBCB",
        "V  c #C9C9C9",
        "W  c #C6C6C6",
        "X  c #C5C5C5",
        "Y  c #B8B8B8",
        "Z  c #818181",
        "`  c #414141",
        " . c #EEEEEE",
        ".. c #F0F0F0",
        "+. c #EFEFEF",
        "@. c #868686",
        "#. c #AFAFAF",
        "$. c #DFDFDF",
        "%. c #8A8A8A",
        "&. c #727272",
        "*. c #717171",
        "=. c #707070",
        "-. c #6F6F6F",
        ";. c #6D6D6D",
        ">. c #747474",
        ",. c #BDBDBD",
        "'. c #BCBCBC",
        "). c #6A6A6A",
        "!. c #BBBBBB",
        "~. c #969696",
        "{. c #8D8D8D",
        "]. c #92909B",
        "^. c #A8A8AD",
        "/. c #96959F",
        "(. c #A09EA6",
        "_. c #A09FA7",
        ":. c #BBBCBC",
        "<. c #A4A5A5",
        "[. c #7E7E7E",
        "}. c #525252",
        "|. c #A5A5A5",
        "1. c #9C9C9C",
        "2. c #585858",
        "3. c #878989",
        "4. c #CCCFCF",
        "5. c #D2D5D5",
        "6. c #DFE0E1",
        "7. c #E8E7EA",
        "8. c #D1D2D2",
        "9. c #999C9C",
        "0. c #D6D6D6",
        "a. c #D3D3D3",
        "b. c #7C7C7C",
        "c. c #BABABA",
        "d. c #D1D4D4",
        "e. c #CDD1D1",
        "f. c #DDDFDF",
        "g. c #E7E7E9",
        "h. c #D0D2D2",
        "i. c #D5D5D5",
        "j. c #343434",
        "k. c #797979",
        "l. c #6B6B6B",
        "m. c #3C3C3C",
        "n. c #858585",
        "o. c #848686",
        "p. c #C7CACA",
        "q. c #DADBDC",
        "r. c #EAEAEB",
        "s. c #CDCFD0",
        "t. c #979A9A",
        "u. c #D4D4D4",
        "v. c #838383",
        "w. c #848484",
        "x. c #808383",
        "y. c #BFC2C2",
        "z. c #C1C4C4",
        "A. c #C0C3C3",
        "B. c #C6C9C9",
        "C. c #B8BBBC",
        "D. c #949797",
        "E. c #D2D2D2",
        "F. c #919191",
        "G. c #5E6060",
        "H. c #797C7C",
        "I. c #7A7C7C",
        "J. c #787A7A",
        "K. c #757777",
        "L. c #717373",
        "M. c #646767",
        "N. c #6C6A64",
        "O. c #898681",
        "P. c #242321",
        "Q. c #767676",
        "R. c #B1B1B1",
        "S. c #A4A4A4",
        "T. c #A9A9A9",
        "U. c #CACACA",
        "V. c #21211F",
        "W. c #ABA9A3",
        "X. c #B5B1A9",
        "Y. c #9E9E9E",
        "Z. c #1A1A1A",
        "`. c #898989",
        " + c #D0D0D0",
        ".+ c #DADADA",
        "++ c #D9D9D9",
        "@+ c #D7D7D7",
        "#+ c #797878",
        "$+ c #C6C4BE",
        "%+ c #828282",
        "&+ c #7F7F7F",
        "*+ c #626262",
        "=+ c #9F9D98",
        "-+ c #53514F",
        ";+ c #504F4E",
        ">+ c #D2D0CE",
        ",+ c #C1BDB5",
        "'+ c #53514E",
        ")+ c #787878",
        "!+ c #292929",
        "~+ c #B6B6B6",
        "{+ c #CECECE",
        "]+ c #CDCDCD",
        "^+ c #585653",
        "/+ c #BCB8B1",
        "(+ c #D5D3CC",
        "_+ c #D5D2CC",
        ":+ c #CBC7C0",
        "<+ c #928E86",
        "[+ c #232220",
        "}+ c #808080",
        "|+ c #353535",
        "1+ c #3A3A3A",
        "2+ c #ACACAC",
        "3+ c #C3C3C3",
        "4+ c #C2C2C2",
        "5+ c #C0C0C0",
        "6+ c #A0A0A0",
        "7+ c #181716",
        "8+ c #1B1B1A",
        "9+ c #1C1C1B",
        "0+ c #9A9997",
        "a+ c #E0DEDA",
        "b+ c #9D9993",
        "c+ c #0D0D0D",
        "d+ c #696969",
        "e+ c #2B2B2B",
        "f+ c #1D1D1D",
        "g+ c #171717",
        "h+ c #181818",
        "i+ c #1C1C1C",
        "j+ c #1E1E1E",
        "k+ c #151515",
        "l+ c #A0A09F",
        "m+ c #8C8B88",
        "n+ c #5A5A5A",
        "o+ c #2A2A2A",
        "p+ c #666666",
        "q+ c #3C3C3B",
        "r+ c #54524E",
        "s+ c #1C1B1A",
        "t+ c #434F5C",
        "u+ c #454F59",
        "v+ c #222222",
        "w+ c #555555",
        "x+ c #999896",
        "y+ c #83807A",
        "z+ c #292725",
        "A+ c #68788A",
        "B+ c #ABBACA",
        "C+ c #96ACC2",
        "D+ c #323E4B",
        "E+ c #D9D8D5",
        "F+ c #98958F",
        "G+ c #262523",
        "H+ c #798594",
        "I+ c #A8B7C8",
        "J+ c #798CA2",
        "K+ c #859FBA",
        "L+ c #3B4958",
        "M+ c #9B9B9A",
        "N+ c #E4E3DF",
        "O+ c #8C8A86",
        "P+ c #232221",
        "Q+ c #86929E",
        "R+ c #B3C0CE",
        "S+ c #788DA4",
        "T+ c #849EB9",
        "U+ c #5E748C",
        "V+ c #14191E",
        "W+ c #929291",
        "X+ c #8A8988",
        "Y+ c #727271",
        "Z+ c #596571",
        "`+ c #D3DAE2",
        " @ c #8395A9",
        ".@ c #54677D",
        "+@ c #0E1216",
        "@@ c #666665",
        "#@ c #202020",
        "$@ c #465362",
        "%@ c #A9BDD1",
        "&@ c #9FB2C6",
        "*@ c #5F748A",
        "=@ c #3F4E5E",
        "-@ c #425263",
        ";@ c #111519",
        ". . . . . . . . . . . . . + @ # @ @ @ @ @ + + $ . . . . . . . . ",
        ". . . . . . . . . . . . % & * = - ; > , ' ) ! ~ { . . . . . . . ",
        ". . . . . . . . . . . . ] ^ / ( _ : < [ } | 1 2 3 . . . . . . . ",
        ". . . . . . . . . . . . ] 4 $ 5 6 7 8 9 0 a b c 3 . . . . . . . ",
        ". . . . . . . . . . . . ] 4 % d e f g h i j k - l . . . . . . . ",
        ". . . . . . . . . . . . ] m n o a p a q r s k - l . . . . . . . ",
        ". . . . . . . . . . . . ] t u v w x x y y z A ; B . . . . . . . ",
        ". . . . . . . . . . . . ] = C D E F G H I J K L M N N N N . . . ",
        ". . . . . . . . . . . . ] t O P Q R S T U V ~ ~ ~ W W X Y Z . . ",
        ". . . . . . . . . . . . `  .....+.@.#.$.%.&.*.=.-.L ;.>.~ W N . ",
        ". . . . . . . . . . . . . L Y ,.'.).!.~.{.].^./.(._.:.<.[.! N . ",
        ". . . . . . . . . . . . }.|.1.1.1.2.!.@.3.4.5.g 6.7.8.9.;.0.N . ",
        ". . . . . . . . . . . . % m c a., b.c.@.3.a d.e.f.g.h.9.;.i.N . ",
        ". . . . . . . . . . . . j.k.l.l.l.m.c.n.o.o d p.q.r.s.t.;.u.N . ",
        ". . . . . . . . . . . . . v.+     N c.w.x.y.z.A.x B.C.D.;.E.N . ",
        ". . . . . . . . . . . . . c O       c.F.G.H.I.I.J.K.L.M.v.& N . ",
        ". . . . . N.O.P.. . . . . - Q.      !.! R.S.S.S.S.S.S.T.i.U.N . ",
        ". . . . . V.W.X.N . . . . Y.# Z.    `. +) .+++@+0.u.a.& @+{.. . ",
        ". . . N . . #+$+N . . . . ).U.|     + &.Z Z Z Z Z Z Z %+&+*+. . ",
        ". . N =+-+;+>+,+'+. . . . )+k.|   !+~+t , t c c c > {+{+.+]+N . ",
        ". . . ^+/+(+_+:+<+[+. . }+# |+*.)+1+2+3+Y 4+5+5+5+!.c.]+0.6+N . ",
        ". . . . 7+8+9+0+a+b+c+d+e+. . . . . f+g+g+g+g+g+g+h+i+K j+k+. . ",
        ". . . . . . . . l+m+n+K . . . . . . . . . . . . . . . . . . . . ",
        ". . . . . . . . o+p+q+r+s+. . . . . . . . . . . . . . . . . . . ",
        ". . . . . . t+u+v+o+w+x+y+z+. . . . . . . . . . . . . . . . . . ",
        ". . . . . A+B+C+D+. . `.E+F+G+. . . . . . . . . . . . . . . . . ",
        ". . . . H+I+J+K+L+. . . M+N+O+P+. . . . . . . . . . . . . . . . ",
        ". . . Q+R+S+T+U+V+. . . . W+X+Y+f+. . . . . . . . . . . . . . . ",
        ". . Z+`+ @K+.@+@. . . . . . @@@@#@. . . . . . . . . . . . . . . ",
        ". . $@%@&@*@+@. . . . . . . . . . . . . . . . . . . . . . . . . ",
        ". . . =@-@;@. . . . . . . . . . . . . . . . . . . . . . . . . . ",
        ". . . . . . . . . . . . . . . . . . . . . . . . . . . . . . . . "};

