/* XPM */
static const char * kndiswrapper_xpm[] = {
"32 32 287 2",
"   c None",
".  c #4E4E4E",
"+  c #4F4F4F",
"@  c #505050",
"#  c #444444",
"$  c #404040",
"%  c #D1D1D1",
"&  c #EDEDED",
"*  c #E4E4E4",
"=  c #E2E2E2",
"-  c #E1E1E1",
";  c #E0E0E0",
">  c #DEDEDE",
",  c #DCDCDC",
"'  c #DBDBDB",
")  c #D8D8D8",
"!  c #C8C8C8",
"~  c #545454",
"{  c #434343",
"]  c #F2F2F2",
"^  c #757575",
"/  c #464648",
"(  c #3B3A3E",
"_  c #434245",
":  c #464547",
"<  c #39383D",
"[  c #474748",
"}  c #4C4C4C",
"|  c #5D5E5E",
"1  c #E9E9E9",
"2  c #616161",
"3  c #E7E7E7",
"4  c #CFD1D4",
"5  c #C3C3CA",
"6  c #D0D2D5",
"7  c #D3D4D7",
"8  c #D7D7DE",
"9  c #ECECEE",
"0  c #CBCECE",
"a  c #4B4C4C",
"b  c #E3E3E3",
"c  c #C8CBCB",
"d  c #D0D3D3",
"e  c #D3D6D6",
"f  c #CED1D1",
"g  c #E4E4E7",
"h  c #E5E5E7",
"i  c #B2B5B5",
"j  c #414242",
"k  c #606060",
"l  c #E6E6E6",
"m  c #3F4040",
"n  c #C5C8C8",
"o  c #CDD0D0",
"p  c #EAEAEC",
"q  c #EAEBEC",
"r  c #B1B4B4",
"s  c #E5E5E5",
"t  c #3E3F3F",
"u  c #BFC3C3",
"v  c #C3C7C7",
"w  c #C4C7C7",
"x  c #E3E3E4",
"y  c #ACB0B1",
"z  c #404141",
"A  c #5F5F5F",
"B  c #3D3D3D",
"C  c #B8BCBC",
"D  c #BBBFBF",
"E  c #B9BCBC",
"F  c #939696",
"G  c #5A5C5C",
"H  c #575959",
"I  c #545555",
"J  c #1F1F1F",
"K  c #6E6E6E",
"L  c #2E2E2E",
"M  c #000000",
"N  c #777777",
"O  c #444545",
"P  c #454545",
"Q  c #333434",
"R  c #676767",
"S  c #C1C1C1",
"T  c #CBCBCB",
"U  c #C9C9C9",
"V  c #C6C6C6",
"W  c #C5C5C5",
"X  c #B8B8B8",
"Y  c #818181",
"Z  c #414141",
"`  c #EEEEEE",
" . c #F0F0F0",
".. c #EFEFEF",
"+. c #868686",
"@. c #AFAFAF",
"#. c #DFDFDF",
"$. c #8A8A8A",
"%. c #727272",
"&. c #717171",
"*. c #707070",
"=. c #6F6F6F",
"-. c #6D6D6D",
";. c #747474",
">. c #BDBDBD",
",. c #BCBCBC",
"'. c #6A6A6A",
"). c #BBBBBB",
"!. c #969696",
"~. c #8D8D8D",
"{. c #92909B",
"]. c #A8A8AD",
"^. c #96959F",
"/. c #A09EA6",
"(. c #A09FA7",
"_. c #BBBCBC",
":. c #A4A5A5",
"<. c #7E7E7E",
"[. c #525252",
"}. c #A5A5A5",
"|. c #9C9C9C",
"1. c #585858",
"2. c #878989",
"3. c #CCCFCF",
"4. c #D2D5D5",
"5. c #DFE0E1",
"6. c #E8E7EA",
"7. c #D1D2D2",
"8. c #999C9C",
"9. c #D6D6D6",
"0. c #D3D3D3",
"a. c #7C7C7C",
"b. c #BABABA",
"c. c #D1D4D4",
"d. c #CDD1D1",
"e. c #DDDFDF",
"f. c #E7E7E9",
"g. c #D0D2D2",
"h. c #D5D5D5",
"i. c #343434",
"j. c #797979",
"k. c #6B6B6B",
"l. c #3C3C3C",
"m. c #858585",
"n. c #848686",
"o. c #C7CACA",
"p. c #DADBDC",
"q. c #EAEAEB",
"r. c #CDCFD0",
"s. c #979A9A",
"t. c #D4D4D4",
"u. c #838383",
"v. c #848484",
"w. c #808383",
"x. c #BFC2C2",
"y. c #C1C4C4",
"z. c #C0C3C3",
"A. c #C6C9C9",
"B. c #B8BBBC",
"C. c #949797",
"D. c #D2D2D2",
"E. c #919191",
"F. c #5E6060",
"G. c #797C7C",
"H. c #7A7C7C",
"I. c #787A7A",
"J. c #757777",
"K. c #717373",
"L. c #646767",
"M. c #6C6A64",
"N. c #898681",
"O. c #242321",
"P. c #767676",
"Q. c #B1B1B1",
"R. c #A4A4A4",
"S. c #A9A9A9",
"T. c #CACACA",
"U. c #21211F",
"V. c #ABA9A3",
"W. c #B5B1A9",
"X. c #9E9E9E",
"Y. c #1A1A1A",
"Z. c #898989",
"`. c #D0D0D0",
" + c #DADADA",
".+ c #D9D9D9",
"++ c #D7D7D7",
"@+ c #797878",
"#+ c #C6C4BE",
"$+ c #828282",
"%+ c #7F7F7F",
"&+ c #626262",
"*+ c #9F9D98",
"=+ c #53514F",
"-+ c #504F4E",
";+ c #D2D0CE",
">+ c #C1BDB5",
",+ c #53514E",
"'+ c #787878",
")+ c #292929",
"!+ c #B6B6B6",
"~+ c #CECECE",
"{+ c #CDCDCD",
"]+ c #585653",
"^+ c #BCB8B1",
"/+ c #D5D3CC",
"(+ c #D5D2CC",
"_+ c #CBC7C0",
":+ c #928E86",
"<+ c #232220",
"[+ c #808080",
"}+ c #353535",
"|+ c #3A3A3A",
"1+ c #ACACAC",
"2+ c #C3C3C3",
"3+ c #C2C2C2",
"4+ c #C0C0C0",
"5+ c #A0A0A0",
"6+ c #181716",
"7+ c #1B1B1A",
"8+ c #1C1C1B",
"9+ c #9A9997",
"0+ c #E0DEDA",
"a+ c #9D9993",
"b+ c #0D0D0D",
"c+ c #696969",
"d+ c #2B2B2B",
"e+ c #1D1D1D",
"f+ c #171717",
"g+ c #181818",
"h+ c #1C1C1C",
"i+ c #1E1E1E",
"j+ c #151515",
"k+ c #A0A09F",
"l+ c #8C8B88",
"m+ c #5A5A5A",
"n+ c #2A2A2A",
"o+ c #666666",
"p+ c #3C3C3B",
"q+ c #54524E",
"r+ c #1C1B1A",
"s+ c #434F5C",
"t+ c #454F59",
"u+ c #222222",
"v+ c #555555",
"w+ c #999896",
"x+ c #83807A",
"y+ c #292725",
"z+ c #68788A",
"A+ c #ABBACA",
"B+ c #96ACC2",
"C+ c #323E4B",
"D+ c #D9D8D5",
"E+ c #98958F",
"F+ c #262523",
"G+ c #798594",
"H+ c #A8B7C8",
"I+ c #798CA2",
"J+ c #859FBA",
"K+ c #3B4958",
"L+ c #9B9B9A",
"M+ c #E4E3DF",
"N+ c #8C8A86",
"O+ c #232221",
"P+ c #86929E",
"Q+ c #B3C0CE",
"R+ c #788DA4",
"S+ c #849EB9",
"T+ c #5E748C",
"U+ c #14191E",
"V+ c #929291",
"W+ c #8A8988",
"X+ c #727271",
"Y+ c #596571",
"Z+ c #D3DAE2",
"`+ c #8395A9",
" @ c #54677D",
".@ c #0E1216",
"+@ c #666665",
"@@ c #202020",
"#@ c #465362",
"$@ c #A9BDD1",
"%@ c #9FB2C6",
"&@ c #5F748A",
"*@ c #3F4E5E",
"=@ c #425263",
"-@ c #111519",
"                          . + @ + + + + + . . #                 ",
"                        $ % & * = - ; > , ' ) ! ~               ",
"                        { ] ^ / ( _ : < [ } | 1 2               ",
"                        { 3 # 4 5 6 7 8 9 0 a b 2               ",
"                        { 3 $ c d e f g h i j = k               ",
"                        { l m n 0 o 0 p q r j = k               ",
"                        { s t u v w w x x y z - A               ",
"                        { * B C D E F G H I J K L M M M M       ",
"                        { s N O P Q R S T U ! ! ! V V W X Y     ",
"                        Z `  . ...+.@.#.$.%.&.*.=.K -.;.! V M   ",
"                          K X >.,.'.).!.~.{.].^./.(._.:.<.) M   ",
"                        [.}.|.|.|.1.).+.2.3.4.f 5.6.7.8.-.9.M   ",
"                        $ l b 0.> a.b.+.2.0 c.d.e.f.g.8.-.h.M   ",
"                        i.j.k.k.k.l.b.m.n.n c o.p.q.r.s.-.t.M   ",
"                          u..     M b.v.w.x.y.z.w A.B.C.-.D.M   ",
"                          b N       b.E.F.G.H.H.I.J.K.L.u.% M   ",
"          M.N.O.          = P.      ).) Q.R.R.R.R.R.R.S.h.T.M   ",
"          U.V.W.M         X.@ Y.    Z.`.'  +.+++9.t.0.% ++~.    ",
"      M     @+#+M         '.T.}     . %.Y Y Y Y Y Y Y $+%+&+    ",
"    M *+=+-+;+>+,+        '+j.}   )+!+s > s b b b ; ~+~+ +{+M   ",
"      ]+^+/+(+_+:+<+    [+@ }+&.'+|+1+2+X 3+4+4+4+).b.{+9.5+M   ",
"        6+7+8+9+0+a+b+c+d+          e+f+f+f+f+f+f+g+h+J i+j+    ",
"                k+l+m+J                                         ",
"                n+o+p+q+r+                                      ",
"            s+t+u+n+v+w+x+y+                                    ",
"          z+A+B+C+    Z.D+E+F+                                  ",
"        G+H+I+J+K+      L+M+N+O+                                ",
"      P+Q+R+S+T+U+        V+W+X+e+                              ",
"    Y+Z+`+J+ @.@            +@+@@@                              ",
"    #@$@%@&@.@                                                  ",
"      *@=@-@                                                    ",
"                                                                "};

