/* XPM */
    static const char * kndiswrapper_nok_xpm[] = {
        "32 32 271 2",
        "   c None",
        ".  c #494949",
        "+  c #505050",
        "@  c #4F4F4F",
        "#  c #4E4E4E",
        "$  c #444444",
        "%  c #818181",
        "&  c #ECECEC",
        "*  c #E8E8E8",
        "=  c #E3E3E3",
        "-  c #E1E1E1",
        ";  c #E0E0E0",
        ">  c #DFDFDF",
        ",  c #DCDCDC",
        "'  c #DBDBDB",
        ")  c #D9D9D9",
        "!  c #D8D8D8",
        "~  c #6F6F6F",
        "{  c #A7A7A7",
        "]  c #C0C0C0",
        "^  c #585858",
        "/  c #3B3B3F",
        "(  c #454547",
        "_  c #3E3D41",
        ":  c #424245",
        "<  c #4C4C4C",
        "[  c #555555",
        "}  c #C8C8C8",
        "|  c #949494",
        "1  c #A8A8A8",
        "2  c #909090",
        "3  c #919393",
        "4  c #C2C3CA",
        "5  c #D4D5D8",
        "6  c #C7C8CD",
        "7  c #D6D6DC",
        "8  c #E4E4E8",
        "9  c #D9DBDB",
        "0  c #868888",
        "a  c #A6A6A6",
        "b  c #FF0000",
        "c  c #8F8F8F",
        "d  c #838585",
        "e  c #CCCFCF",
        "f  c #D3D6D6",
        "g  c #CED1D1",
        "h  c #DFE0E1",
        "i  c #E0E0E4",
        "j  c #C5C8C8",
        "k  c #7D7676",
        "l  c #B15959",
        "m  c #E12E2E",
        "n  c #E30000",
        "o  c #8E8E8E",
        "p  c #828484",
        "q  c #C9CCCC",
        "r  c #CDD0D0",
        "s  c #CACDCD",
        "t  c #E0E0E1",
        "u  c #E9E9EB",
        "v  c #BE5E5E",
        "w  c #EA0404",
        "x  c #8D8D8D",
        "y  c #7E8080",
        "z  c #C2C5C5",
        "A  c #C4C7C7",
        "B  c #C3C6C6",
        "C  c #D8D9DA",
        "D  c #E4DFDF",
        "E  c #D78C8D",
        "F  c #F70F0F",
        "G  c #8C8C8C",
        "H  c #7A7C7C",
        "I  c #BABEBE",
        "J  c #BCC0C0",
        "K  c #A7AAAA",
        "L  c #6B6D6D",
        "M  c #A44F4F",
        "N  c #F21717",
        "O  c #F80000",
        "P  c #740000",
        "Q  c #000000",
        "R  c #B4B4B4",
        "S  c #545454",
        "T  c #444545",
        "U  c #454545",
        "V  c #3D3939",
        "W  c #AB6767",
        "X  c #EB0808",
        "Y  c #FE0000",
        "Z  c #FF0101",
        "`  c #F63C3C",
        " . c #D2B1B1",
        ".. c #BBBBBB",
        "+. c #828282",
        "@. c #BA0000",
        "#. c #BCA3A3",
        "$. c #F0F0F0",
        "%. c #EFEFEF",
        "&. c #6C1B1B",
        "*. c #FA2121",
        "=. c #FC0000",
        "-. c #C80202",
        ";. c #754A4A",
        ">. c #6C6C6C",
        ",. c #C1C1C1",
        "'. c #D6D6D6",
        "). c #CB2121",
        "!. c #A79C9C",
        "~. c #BDBDBD",
        "{. c #BEBBBB",
        "]. c #D39696",
        "^. c #DF0101",
        "/. c #ED3134",
        "(. c #BA8791",
        "_. c #BCBDBD",
        ":. c #B7B8B8",
        "<. c #676767",
        "[. c #C82B2B",
        "}. c #9D8686",
        "|. c #A95D5D",
        "1. c #E61010",
        "2. c #FF0202",
        "3. c #F52E2E",
        "4. c #DDBDBD",
        "5. c #E8E8EB",
        "6. c #DADBDB",
        "7. c #AFB3B3",
        "8. c #535353",
        "9. c #E6E6E6",
        "0. c #FF0808",
        "a. c #F44444",
        "b. c #FC2323",
        "c. c #F43030",
        "d. c #D9A4A4",
        "e. c #D5D7D8",
        "f. c #E7E7EA",
        "g. c #E5E5E5",
        "h. c #FE0202",
        "i. c #F32727",
        "j. c #CFADAD",
        "k. c #C8CBCB",
        "l. c #D1D3D4",
        "m. c #EAE9EB",
        "n. c #D7D9D9",
        "o. c #ADB1B1",
        "p. c #E4E4E4",
        "q. c #E91E1E",
        "r. c #CC9191",
        "s. c #C0C4C4",
        "t. c #C1C5C5",
        "u. c #C7CACA",
        "v. c #BCBFBF",
        "w. c #AAADAD",
        "x. c #F62525",
        "y. c #6A4343",
        "z. c #787B7B",
        "A. c #767878",
        "B. c #717474",
        "C. c #6D7070",
        "D. c #6D6D6D",
        "E. c #807D77",
        "F. c #77756F",
        "G. c #BFBFBF",
        "H. c #A4A4A4",
        "I. c #D3D3D3",
        "J. c #3B3A38",
        "K. c #BBB8B2",
        "L. c #7D7A74",
        "M. c #F36767",
        "N. c #DECECE",
        "O. c #D4D4D4",
        "P. c #D1D1D1",
        "Q. c #D7D7D7",
        "R. c #9A9A9A",
        "S. c #A9A8A7",
        "T. c #86847F",
        "U. c #470000",
        "V. c #FC0909",
        "W. c #D34747",
        "X. c #646464",
        "Y. c #A5A39E",
        "Z. c #42413F",
        "`. c #6D6D6C",
        " + c #D9D7D4",
        ".+ c #C6766F",
        "++ c #EA0A09",
        "@+ c #F01212",
        "#+ c #FB0C0C",
        "$+ c #FC0101",
        "%+ c #EE6C6C",
        "&+ c #E5D8D8",
        "*+ c #CECECE",
        "=+ c #706D69",
        "-+ c #C0BCB4",
        ";+ c #D9D7D1",
        ">+ c #D9A29D",
        ",+ c #F51918",
        "'+ c #E10B0B",
        ")+ c #8B3E3E",
        "!+ c #A43333",
        "~+ c #F20505",
        "{+ c #FD0B0B",
        "]+ c #E66161",
        "^+ c #CCCCCC",
        "/+ c #D5D5D5",
        "(+ c #AFAFAF",
        "_+ c #1A1A19",
        ":+ c #5E1616",
        "<+ c #DF0E0E",
        "[+ c #FD0404",
        "}+ c #8E1313",
        "|+ c #231616",
        "1+ c #1A1A1A",
        "2+ c #1E1E1E",
        "3+ c #151515",
        "4+ c #F60000",
        "5+ c #E40000",
        "6+ c #FD0000",
        "7+ c #E50000",
        "8+ c #FD0101",
        "9+ c #E11616",
        "0+ c #633633",
        "a+ c #140D0D",
        "b+ c #CD0404",
        "c+ c #905B5A",
        "d+ c #9E9B97",
        "e+ c #5F5C58",
        "f+ c #F90000",
        "g+ c #FE0101",
        "h+ c #D30101",
        "i+ c #1F1C1B",
        "j+ c #CBCAC9",
        "k+ c #CECBC6",
        "l+ c #595752",
        "m+ c #0B0A0A",
        "n+ c #49252A",
        "o+ c #D4393E",
        "p+ c #FA0506",
        "q+ c #FC0607",
        "r+ c #D3242C",
        "s+ c #481317",
        "t+ c #3A3A3A",
        "u+ c #CDCCCC",
        "v+ c #C3C1BC",
        "w+ c #54524F",
        "x+ c #0F1114",
        "y+ c #9EA8B4",
        "z+ c #B09EAC",
        "A+ c #A55F70",
        "B+ c #A96578",
        "C+ c #58414F",
        "D+ c #0F0D0F",
        "E+ c #333333",
        "F+ c #B8B7B6",
        "G+ c #6D6C6A",
        "H+ c #5D5D5D",
        "I+ c #697786",
        "J+ c #CFD5DD",
        "K+ c #8094AA",
        "L+ c #819CB7",
        "M+ c #48596B",
        "N+ c #313030",
        "O+ c #696969",
        "P+ c #4A4A4A",
        "Q+ c #526273",
        "R+ c #AFC2D5",
        "S+ c #9BAFC5",
        "T+ c #0A0D10",
        "U+ c #455567",
        "V+ c #415162",
        "                            . + @ @ @ @ @ @ # $                 ",
        "                          % & * = - ; > , ' ) ! ~               ",
        "                          { ] ^ / ( _ _ : < [ } |               ",
        "                          1 2 3 4 5 6 7 8 9 0 a |               ",
        "            b             1 c d e f g h i j k l m n             ",
        "          b b b b         { o p q r s t u j v w b b b           ",
        "        b b b b b b       { x y z A B C D E F b b b b           ",
        "        b b b b b b b     { G H I J K L M N b b b b O P Q       ",
        "          b b b b b b b   { R S T U V W X Y b b b Z `  ...+.    ",
        "            b b b b b b @.#.& $.%.%.&.*.b b b b =.-.;.>.,.'.Q   ",
        "              b b b b b O ).!.~.{.].^.Z b b b Z /.(._.:.<.* Q   ",
        "                b b b b b b [.}.|.1.b b b b 2.3.4.5.6.7.8.9.Q   ",
        "                  b b b b b 0.a.b.Z b b b Z c.d.e.f.6.7.8.g.Q   ",
        "                    b b b b b b b b b b h.i.j.k.l.m.n.o.8.p.Q   ",
        "                      b b b b b b b b b q.r.s.s.t.u.v.w.8.= Q   ",
        "                        b b b b b b Z x.y.z.H H z.A.B.C.D.- Q   ",
        "            E.F.        b b b b b b Z a.G.H.H.H.H.H.H.H.I.) Q   ",
        "            J.K.L.    b b b b b b b b Z M.N.) ! '.O.I.P.Q.R.Q   ",
        "        Q     S.T.U.b b b b b b b b b b V.W.% % % % % % % X.    ",
        "      Q Y.Z.`. +.+++b b b b Y @+#+b b b b $+%+&+= p.*+*+Q.' Q   ",
        "        =+-+;+>+,+b b b b b '+)+!+~+b b b b {+]+] ] R ^+/+(+Q   ",
        "          _+:+<+b b b b b O         Y b b b b [+}+|+1+2+2+3+    ",
        "            4+b b b b b 5+            Y b b b b 6+7+            ",
        "          6+b b b b 8+9+0+a+            b b b b b Y             ",
        "          b b b b b b+c+d+e+              b b b b b b           ",
        "          f+b b g+h+  i+j+k+l+m+            b b b b b           ",
        "        n+o+p+q+r+s+    t+u+v+w+Q           b b b b b           ",
        "      x+y+z+A+B+C+D+      E+F+G+H+              b b             ",
        "      I+J+K+L+M+Q           N+O+P+                              ",
        "      Q+R+S+M+T+                                                ",
        "      Q U+V+Q                                                   ",
        "                                                                "};

