/* XPM */
static const char * reload_xpm[] = {
"32 32 437 2",
"   c None",
".  c #001B7B",
"+  c #001D7E",
"@  c #002786",
"#  c #002F8E",
"$  c #002E8D",
"%  c #002787",
"&  c #001F7F",
"*  c #001E7E",
"=  c #002F8F",
"-  c #0342A1",
";  c #2571C2",
">  c #408DD3",
",  c #5197D8",
"'  c #63A2DC",
")  c #5FA0DB",
"!  c #4D95D7",
"~  c #3B8AD2",
"{  c #1D6BBF",
"]  c #0342A0",
"^  c #00308F",
"/  c #001D7D",
"(  c #002888",
"_  c #004AA9",
":  c #498DD0",
"<  c #97C1E7",
"[  c #CCE0F3",
"}  c #EAF2FA",
"|  c #F7FAFD",
"1  c #F9FBFD",
"2  c #F8FBFD",
"3  c #F4F8FC",
"4  c #E5F0F9",
"5  c #C3DBF1",
"6  c #84B6E2",
"7  c #307FCA",
"8  c #0049A8",
"9  c #002988",
"0  c #002080",
"a  c #013E9D",
"b  c #4991D4",
"c  c #B4D2EE",
"d  c #FCFDFE",
"e  c #FDFDFE",
"f  c #F3F7FB",
"g  c #F3F8FC",
"h  c #F5F9FC",
"i  c #ECF3FA",
"j  c #90BDE6",
"k  c #2E82CE",
"l  c #003D9C",
"m  c #00207F",
"n  c #001C7C",
"o  c #044BA8",
"p  c #5C9AD6",
"q  c #E8F1FA",
"r  c #FDFEFE",
"s  c #F6FAFC",
"t  c #E5EFF8",
"u  c #E3EEF8",
"v  c #E4EFF8",
"w  c #E5EFF9",
"x  c #E6F0F9",
"y  c #BDD8F0",
"z  c #3080CD",
"A  c #024BA9",
"B  c #054CA9",
"C  c #91BEE6",
"D  c #FAFCFD",
"E  c #F0F6FB",
"F  c #DFECF7",
"G  c #D5E6F5",
"H  c #D1E4F4",
"I  c #D2E4F4",
"J  c #D4E5F5",
"K  c #4C94D6",
"L  c #0149A7",
"M  c #013D9C",
"N  c #5B99D6",
"O  c #E7F0F9",
"P  c #E0EDF8",
"Q  c #DEEBF7",
"R  c #DDEAF7",
"S  c #E0ECF7",
"T  c #E4EFF9",
"U  c #ECF3FB",
"V  c #EEF5FB",
"W  c #DFEBF7",
"X  c #C9DFF2",
"Y  c #C5DCF1",
"Z  c #AECEEC",
"`  c #1E76C8",
" . c #003E9D",
".. c #4891D4",
"+. c #E2EDF8",
"@. c #F6F9FC",
"#. c #FFFFFF",
"$. c #FBFCFE",
"%. c #E4EEF8",
"&. c #BBD6EF",
"*. c #B2D1ED",
"=. c #82B4E2",
"-. c #1170C8",
";. c #DAE8F6",
">. c #CDE1F3",
",. c #CBE0F3",
"'. c #E1ECF8",
"). c #FBFDFE",
"!. c #D7E5F4",
"~. c #A3C7E8",
"{. c #A4C8EA",
"]. c #9BC3E8",
"^. c #3989D2",
"/. c #468BCF",
"(. c #C0D9F0",
"_. c #BED8F0",
":. c #DEEAF7",
"<. c #F6F9FD",
"[. c #E1ECF7",
"}. c #DFEAF7",
"|. c #E8F0F9",
"1. c #D5E3F2",
"2. c #90BAE3",
"3. c #92BEE6",
"4. c #78AEE0",
"5. c #0163C1",
"6. c #011D7C",
"7. c #0344A1",
"8. c #94BFE6",
"9. c #C2DBF1",
"0. c #B4D2ED",
"a. c #BCD7EF",
"b. c #CFE1F2",
"c. c #9CC1E6",
"d. c #8AB6E2",
"e. c #8AB7E3",
"f. c #92BCE5",
"g. c #A9C9E9",
"h. c #D9E6F4",
"i. c #E3ECF6",
"j. c #93B8E0",
"k. c #7FB0DF",
"l. c #84B6E3",
"m. c #83B5E3",
"n. c #1373CA",
"o. c #0041A0",
"p. c #032181",
"q. c #2470C2",
"r. c #C1DAF0",
"s. c #CDE0F3",
"t. c #A6C9EB",
"u. c #A3C7EA",
"v. c #DBEAF6",
"w. c #F9FBFE",
"x. c #BDD6EF",
"y. c #6BA4DC",
"z. c #72AADF",
"A. c #73ABDF",
"B. c #70A8DE",
"C. c #6CA3DA",
"D. c #6FA7DD",
"E. c #3889D2",
"F. c #005CBA",
"G. c #052483",
"H. c #052786",
"I. c #3E8BD2",
"J. c #DAE9F6",
"K. c #9EC5E8",
"L. c #7AB0E0",
"M. c #8AB9E4",
"N. c #E7F0FA",
"O. c #DBE9F7",
"P. c #70A7DE",
"Q. c #64A2DC",
"R. c #65A3DC",
"S. c #9EC5E9",
"T. c #70AADF",
"U. c #418ED4",
"V. c #0067C5",
"W. c #052686",
"X. c #082988",
"Y. c #063392",
"Z. c #4A93D6",
"`. c #C4DBF1",
" + c #5499D8",
".+ c #5399D8",
"++ c #81B4E2",
"@+ c #96BFE6",
"#+ c #5297D7",
"$+ c #559AD8",
"%+ c #6CA8DD",
"&+ c #B1D1ED",
"*+ c #F2F7FC",
"=+ c #F4F7FB",
"-+ c #7CACDC",
";+ c #3C8BD3",
">+ c #046AC7",
",+ c #063391",
"'+ c #0A2C8A",
")+ c #073B99",
"!+ c #569AD9",
"~+ c #A5C9EA",
"{+ c #4591D5",
"]+ c #79AFE0",
"^+ c #F5F9FD",
"/+ c #70A8DD",
"(+ c #4590D5",
"_+ c #4993D6",
":+ c #99C3E7",
"<+ c #FEFEFF",
"[+ c #E9F1F8",
"}+ c #689FD5",
"|+ c #3487D1",
"1+ c #066BC7",
"2+ c #073C9A",
"3+ c #0C318E",
"4+ c #093F9C",
"5+ c #559AD9",
"6+ c #86B7E3",
"7+ c #2C82CF",
"8+ c #3285D1",
"9+ c #6FAADF",
"0+ c #F6FAFD",
"a+ c #64A1DB",
"b+ c #3486D1",
"c+ c #4490D5",
"d+ c #88B8E4",
"e+ c #D7E5F3",
"f+ c #4E90D1",
"g+ c #2D82D0",
"h+ c #227CCD",
"i+ c #0B6FC8",
"j+ c #0169C6",
"k+ c #093E9B",
"l+ c #0E3491",
"m+ c #0C3D9A",
"n+ c #4390D4",
"o+ c #71AADE",
"p+ c #0C6FC8",
"q+ c #1273C9",
"r+ c #579BD9",
"s+ c #88B7E3",
"t+ c #2A80CE",
"u+ c #2A81CF",
"v+ c #4892D5",
"w+ c #B7D4EF",
"x+ c #C5D9EE",
"y+ c #277AC9",
"z+ c #0D6FC8",
"A+ c #076CC7",
"B+ c #0C3C9A",
"C+ c #113995",
"D+ c #103A96",
"E+ c #3788D1",
"F+ c #CEE1F4",
"G+ c #1B77CC",
"H+ c #1B78CC",
"I+ c #1C78CC",
"J+ c #AECAE8",
"K+ c #0F6CC5",
"L+ c #0D70C9",
"M+ c #0B6EC8",
"N+ c #103B97",
"O+ c #133C98",
"P+ c #123C98",
"Q+ c #2877C7",
"R+ c #6DA8DE",
"S+ c #1172CA",
"T+ c #1071CA",
"U+ c #89B9E4",
"V+ c #A7CAEB",
"W+ c #1072CA",
"X+ c #1474CA",
"Y+ c #438FD4",
"Z+ c #95BBE2",
"`+ c #0F6DC6",
" @ c #1068C1",
".@ c #15409C",
"+@ c #175BB3",
"@@ c #64A3DB",
"#@ c #247ECD",
"$@ c #1676CA",
"%@ c #3186D0",
"&@ c #ECF4FB",
"*@ c #61A1DB",
"=@ c #398AD2",
"-@ c #77AEE0",
";@ c #73A7DA",
">@ c #1573C8",
",@ c #1D7ACC",
"'@ c #1776CA",
")@ c #155AB3",
"!@ c #17449F",
"~@ c #1852AB",
"{@ c #3E89D0",
"]@ c #4490D4",
"^@ c #D5E6F6",
"/@ c #CDE2F4",
"(@ c #E1EDF8",
"_@ c #5A97D3",
":@ c #1A77CA",
"<@ c #267FCE",
"[@ c #1A74C8",
"}@ c #1948A2",
"|@ c #1A4AA4",
"1@ c #1E67BC",
"2@ c #4F96D7",
"3@ c #3285D0",
"4@ c #217CCD",
"5@ c #257ECE",
"6@ c #73ACDF",
"7@ c #BBD3ED",
"8@ c #93BBE3",
"9@ c #EEF4FA",
"0@ c #3982CB",
"a@ c #217BCD",
"b@ c #2E83D0",
"c@ c #2880CF",
"d@ c #1D67BC",
"e@ c #1C4BA6",
"f@ c #1D54AD",
"g@ c #3888D1",
"h@ c #2D83D0",
"i@ c #267FCF",
"j@ c #2780CF",
"k@ c #62A2DC",
"l@ c #AFCFED",
"m@ c #F1F6FB",
"n@ c #99BEE4",
"o@ c #3782CC",
"p@ c #267CCC",
"q@ c #6CA6DC",
"r@ c #94BAE1",
"s@ c #2677C8",
"t@ c #2E84D0",
"u@ c #3889D3",
"v@ c #277FCE",
"w@ c #1E50AA",
"x@ c #2467BB",
"y@ c #3989D0",
"z@ c #4491D4",
"A@ c #3689D2",
"B@ c #2B83CF",
"C@ c #2B82CF",
"D@ c #4C95D6",
"E@ c #80B3E1",
"F@ c #98C1E6",
"G@ c #A9CBEA",
"H@ c #95BDE4",
"I@ c #66A0D8",
"J@ c #3280CB",
"K@ c #2A7ECC",
"L@ c #2A81CE",
"M@ c #3689D1",
"N@ c #2F83CE",
"O@ c #2466BA",
"P@ c #1E4FA9",
"Q@ c #2053AC",
"R@ c #2156AF",
"S@ c #2A71C2",
"T@ c #3D8DD3",
"U@ c #4C95D7",
"V@ c #3C8CD3",
"W@ c #3186D1",
"X@ c #3085D1",
"Y@ c #3085D0",
"Z@ c #3084D0",
"`@ c #3083CF",
" # c #2F83CF",
".# c #3084CF",
"+# c #4C96D7",
"@# c #2972C2",
"## c #2156AE",
"$# c #2257B0",
"%# c #2359B2",
"&# c #2E75C5",
"*# c #3F8CD3",
"=# c #559BD9",
"-# c #5198D8",
";# c #3F8ED4",
"># c #388AD3",
",# c #5199D8",
"'# c #569BD9",
")# c #2E74C4",
"!# c #255BB3",
"~# c #265EB5",
"{# c #2D71C1",
"]# c #579DDA",
"^# c #5EA1DB",
"/# c #569CD9",
"(# c #4B95D7",
"_# c #4190D5",
":# c #3B8CD4",
"<# c #418FD5",
"[# c #4A95D7",
"}# c #579CD9",
"|# c #589DDA",
"1# c #4491D5",
"2# c #2E72C2",
"3# c #275EB7",
"4# c #275FB8",
"5# c #2C68BC",
"6# c #367CC9",
"7# c #4C93D5",
"8# c #5DA0DA",
"9# c #65A5DC",
"0# c #6AA8DD",
"a# c #68A6DD",
"b# c #68A6DC",
"c# c #66A5DC",
"d# c #4D94D5",
"e# c #367DC9",
"f# c #2C67BC",
"g# c #2962BA",
"h# c #2963BA",
"i# c #2A65BB",
"j# c #3070C2",
"k# c #397CC8",
"l# c #498FD3",
"m# c #549AD8",
"n# c #5A9EDA",
"o# c #5EA0DA",
"p# c #5FA1DB",
"q# c #549BD8",
"r# c #4A90D3",
"s# c #387BC8",
"t# c #2B66BD",
"u# c #2B67BE",
"v# c #2C67BE",
"w# c #2D6ABF",
"x# c #306FC2",
"y# c #3373C4",
"z# c #3474C4",
"A# c #316FC2",
"B# c #2C69BF",
"C# c #2D6AC1",
"D# c #2E6AC1",
"                        . . . . . . . .                         ",
"                  . . . . + @ # $ % & . . . .                   ",
"                . * = - ; > , ' ) ! ~ { ] ^ / . .               ",
"            . . ( _ : < [ } | 1 2 3 4 5 6 7 8 9 . .             ",
"          . 0 a b c d e 1 | 3 3 f f g 3 h i j k l m .           ",
"        . n o p q r s } t u u u u u u u v w x y z A n .         ",
"      . m B C | D E x F G H I I H H H H H H H J 5 K L 0 .       ",
"    . . M N 2 D O P Q R S T U V O W X 5 5 5 5 5 Y Z `  ..       ",
"    . 9 ..x h R G J +.@.#.#.#.#.#.#.$.%.&.*.*.*.*.*.=.-.( .     ",
"  . / 8 *.D ;.>.,.'.).#.#.#.#.#.#.#.#.#.!.~.{.{.{.{.].^._ * .   ",
"  . ^ /.| Q (._.:.e #.#.#.<.[.}.|.$.#.#.1.2.3.3.3.3.3.4.5.= .   ",
"  6.7.8.i 9.0.a.$.#.#.#.b.c.d.e.f.g.h.i.j.k.l.l.l.l.l.m.n.o.6.  ",
"p.p.q.r.s.t.u.v.#.#.w.x.y.z.A.A.A.A.B.C.D.A.A.A.A.A.A.A.E.F.p.p.",
"G.H.I.J.K.L.M.N.#.#.O.P.Q.R.R.R.R.R.R.R.R.R.R.A.S.T.R.R.U.V.W.G.",
"X.Y.Z.`. +.+++g #.#.@+#+.+.+.+.+.+.+.+.+$+%+&+*+=+-+.+.+;+>+,+X.",
"'+)+!+~+{+{+]+^+#.#./+(+{+{+{+{+{+{+{+_+:+J.<+#.[+}+{+{+|+1+2+'+",
"3+4+5+6+7+8+9+0+#.#.a+b+|+|+|+|+|+c+d+Q #.#.#.#.e+f+g+h+i+j+k+3+",
"l+m+n+o+p+q+r+E #.#.s+t+u+u+u+u+v+w+1 #.#.#.#.#.x+y+z+A+1+1+B+l+",
"C+D+E+o+i+i+h+9.#.#.F+E+G+H+H+I+c+H #.#.#.#.#.#.J+K+i+i+L+M+N+C+",
"O+P+Q+R+S+T+S+U+#.#.1 V+S+W+S+S+X+Y+R #.#.#.#.#.Z+`+T+S+n. @P+O+",
"  .@+@@@#@$@$@%@&@#.#.#.a.*@=@%@{+-@U #.#.#.#.#.;@>@$@,@'@)@.@  ",
"  !@~@{@]@,@H+H+++<.#.#.#.*+^@/@(@w.#.#.#.#.#.#._@:@,@<@[@~@!@  ",
"  }@|@1@2@3@4@4@5@6@&@#.#.#.#.#.#.#.#.d 7@8@9@r 0@a@b@c@d@|@}@  ",
"    e@f@g@c+h@i@i@j@k@l@d #.#.#.#.#.m@n@o@p@q@r@s@t@u@v@f@e@    ",
"      w@x@y@z@A@B@B@B@C@D@E@F@G@H@I@J@K@B@B@B@L@M@z@N@O@w@P@    ",
"      Q@R@S@T@U@V@W@X@X@X@Y@Z@`@ #.#Y@X@X@X@W@T@+#T@@###Q@      ",
"        $#%#&#*#=#-#;#>#A@A@A@A@A@A@A@A@>#;#,#'#*#)#%#$#        ",
"          !#~#{#c+]#^#/#(#_#:#:#:#:#<#[#}#^#|#1#2#~#!#          ",
"            3#4#5#6#7#8#9#0#0#a#b#0#0#c#8#d#e#f#4#3#            ",
"              g#h#i#j#k#l#m#n#o#p#n#q#r#s#j#i#h#                ",
"                  t#u#v#v#w#x#y#z#A#B#u#v#u#t#                  ",
"                        C#D#D#D#D#D#D#C#                        "};
