/* XPM */
static const char * restore_xpm[] = {
"32 32 60 1",
"   c None",
".  c #A467A8",
"+  c #A569AA",
"@  c #A56AAA",
"#  c #A568A9",
"$  c #A66AAA",
"%  c #A66BAA",
"&  c #A66CAB",
"*  c #A76CAB",
"=  c #A66BAB",
"-  c #A76DAB",
";  c #A76EAC",
">  c #A569A9",
",  c #A86EAC",
"'  c #A86FAC",
")  c #A468A9",
"!  c #A467A9",
"~  c #A466A8",
"{  c #A365A7",
"]  c #A970AD",
"^  c #A365A8",
"/  c #A971AD",
"(  c #A366A8",
"_  c #A870AD",
":  c #5A7BBA",
"<  c #597AB9",
"[  c #5C7CBA",
"}  c #597ABA",
"|  c #5C7DBB",
"1  c #5D7DBB",
"2  c #587AB9",
"3  c #6F8AC0",
"4  c #6E8AC0",
"5  c #6D8AC0",
"6  c #6D89C0",
"7  c #6C89BF",
"8  c #6B88BF",
"9  c #6A87BF",
"0  c #6886BE",
"a  c #6885BE",
"b  c #6785BE",
"c  c #6784BE",
"d  c #6684BE",
"e  c #6583BD",
"f  c #6483BD",
"g  c #6482BD",
"h  c #6382BD",
"i  c #6381BD",
"j  c #6180BC",
"k  c #607FBC",
"l  c #5F7FBC",
"m  c #5E7EBB",
"n  c #5D7EBB",
"o  c #5A7ABA",
"p  c #6D89BF",
"q  c #708BC0",
"r  c #708CC0",
"s  c #718CC0",
"t  c #5B7CBA",
"u  c #6281BD",
"      .                         ",
"     +@#                        ",
"    $%$@                        ",
"   &*=%$                        ",
"  -;-*=%@@>..                   ",
" ,',;-*=%$@#)!~{                ",
"]]]',;-*=%$@#)!.^               ",
" /]]',;-*=%$@#)!.(              ",
" '/]]',;-*=%$@#)!.(             ",
"  ]/]]',;-*=%$@#)!.{            ",
"   //]]'   $$%$@#)!.            ",
"    //]]      >$@#)!(           ",
"     //]        $@#)!           ",
"      _;         $@#)(          ",
"                  @@#.          ",
"                  >$@#          ",
"                   %$@          ",
"                    %$#         ",
"                    %%          ",
"                         :<     ",
"                         [:}    ",
"                         |[:<   ",
"                         1|[:2  ",
" 3456788990abcdefghijjklmn1|[:o ",
"pq3456788990abcdefghijjklmn1|[: ",
"prq3456788990abcdefghijjklmn1|[ ",
"psrq3456788990abcdefghijjklmn1t ",
"                        kjklm|  ",
"                         jjkm   ",
"                         ijk    ",
"                         hu     ",
"                         m      "};

