/* XPM */
static const char * startscript_xpm[] = {
"32 32 74 1",
"   c None",
".  c #6AB42A",
"+  c #6BB42C",
"@  c #6BB42B",
"#  c #6DB52F",
"$  c #6DB52E",
"%  c #6CB42C",
"&  c #6EB630",
"*  c #6EB52F",
"=  c #6CB52D",
"-  c #6FB631",
";  c #70B633",
">  c #71B734",
",  c #72B736",
"'  c #72B735",
")  c #74B838",
"!  c #73B838",
"~  c #71B733",
"{  c #74B839",
"]  c #76B93C",
"^  c #76B93B",
"/  c #75B83A",
"(  c #77B93D",
"_  c #7CBB45",
":  c #7BBB43",
"<  c #7ABA42",
"[  c #79BA40",
"}  c #75B93B",
"|  c #7ABB42",
"1  c #78BA3E",
"2  c #78BA3F",
"3  c #77B93E",
"4  c #79BA41",
"5  c #7CBB44",
"6  c #7ABA41",
"7  c #7CBB46",
"8  c #7DBB46",
"9  c #7DBC46",
"0  c #7DBC47",
"a  c #5A7BBA",
"b  c #597AB9",
"c  c #5C7CBA",
"d  c #5879B9",
"e  c #5C7DBB",
"f  c #5D7DBB",
"g  c #587AB9",
"h  c #6F8AC0",
"i  c #6E8AC0",
"j  c #6D8AC0",
"k  c #6D89C0",
"l  c #6C89BF",
"m  c #6B88BF",
"n  c #6A87BF",
"o  c #6886BE",
"p  c #6885BE",
"q  c #6785BE",
"r  c #6784BE",
"s  c #6684BE",
"t  c #6583BD",
"u  c #6483BD",
"v  c #6482BD",
"w  c #6382BD",
"x  c #6381BD",
"y  c #6180BC",
"z  c #607FBC",
"A  c #5F7FBC",
"B  c #5E7EBB",
"C  c #5D7EBB",
"D  c #6D89BF",
"E  c #708BC0",
"F  c #708CC0",
"G  c #718CC0",
"H  c #5B7CBA",
"I  c #6281BD",
"                   .            ",
"                 +@.            ",
"                #$%@            ",
"               &*#=             ",
"             -;-&*              ",
"            ;>>;-               ",
"           >,'>>                ",
"           )!,'~                ",
"          {{)!,                 ",
"         ]^/{)                  ",
"(_:<[   ](]}/                   ",
" __:||[123(]/                   ",
" :__:||4[23(                    ",
"  5__:||4[2(                    ",
"   5__:||6[                     ",
"    78_:||                      ",
"     9__:|                      ",
"     _9__<                      ",
"      998                       ",
"      :0_                ab     ",
"       4                 cad    ",
"                         ecab   ",
"                         fecag  ",
" hijklmmnnopqrstuvwxyyzABCfecag ",
"DEhijklmmnnopqrstuvwxyyzABCfeca ",
"DFEhijklmmnnopqrstuvwxyyzABCfec ",
"DGFEhijklmmnnopqrstuvwxyyzABCfH ",
"                        zyzABe  ",
"                         yyzB   ",
"                         xyz    ",
"                         wI     ",
"                         B      "};

