/* XPM */
static const char * stop_xpm[] = {
"24 24 153 2",
"   c None",
".  c #660908",
"+  c #640B0C",
"@  c #63080B",
"#  c #620A08",
"$  c #620A07",
"%  c #630906",
"&  c #630404",
"*  c #630000",
"=  c #EA5A4D",
"-  c #E72C00",
";  c #630202",
">  c #DC554A",
",  c #D42A05",
"'  c #DA2902",
")  c #E12900",
"!  c #BC2A0D",
"~  c #B22B12",
"{  c #DE9485",
"]  c #CE2704",
"^  c #DB2700",
"/  c #D42702",
"(  c #C82908",
"_  c #B62A10",
":  c #DB9487",
"<  c #C3290A",
"[  c #C92505",
"}  c #AE2912",
"|  c #F5F1F1",
"1  c #F6F3F3",
"2  c #DD9D91",
"3  c #CE3011",
"4  c #D52400",
"5  c #CF2402",
"6  c #C32608",
"7  c #AD2913",
"8  c #CF958C",
"9  c #F8F5F5",
"0  c #FCFBFB",
"a  c #D03D20",
"b  c #D7300E",
"c  c #C92202",
"d  c #DA9285",
"e  c #DEA197",
"f  c #C32D13",
"g  c #BE2408",
"h  c #A92813",
"i  c #CE948C",
"j  c #FAF9F9",
"k  c #FDFDFD",
"l  c #E8A99D",
"m  c #D4391C",
"n  c #CF2100",
"o  c #C91F00",
"p  c #BE2104",
"q  c #DA9B91",
"r  c #D7A097",
"s  c #A62F1D",
"t  c #CC948C",
"u  c #E9BBB3",
"v  c #D55D48",
"w  c #CE371C",
"x  c #C31C00",
"y  c #BE2911",
"z  c #DA9F97",
"A  c #F4F0F0",
"B  c #CD9F99",
"C  c #E7BAB3",
"D  c #D46856",
"E  c #CC412A",
"F  c #C6280E",
"G  c #BD1A00",
"H  c #B42813",
"I  c #D49E97",
"J  c #F2EEEE",
"K  c #E6BAB3",
"L  c #D06656",
"M  c #C73F2A",
"N  c #C0260E",
"O  c #B71700",
"P  c #B21802",
"Q  c #AA1B08",
"R  c #9B2B1D",
"S  c #CB9E99",
"T  c #DBB5B0",
"U  c #C46255",
"V  c #C23D2A",
"W  c #BA230E",
"X  c #B11400",
"Y  c #AD1502",
"Z  c #A51908",
"`  c #971F13",
" . c #C6918C",
".. c #D8A8A2",
"+. c #B22E1E",
"@. c #AB1200",
"#. c #A71302",
"$. c #A01708",
"%. c #931E13",
"&. c #C5908C",
"*. c #D8B4B0",
"=. c #D39C97",
"-. c #A92011",
";. c #A50F00",
">. c #9E1305",
",. c #911B10",
"'. c #C3908C",
"). c #E0B7B3",
"!. c #BA5D55",
"~. c #D5A6A2",
"{. c #D39C96",
"]. c #A81D0F",
"^. c #991105",
"/. c #C68B87",
"(. c #DEB7B3",
"_. c #BD5E56",
":. c #AE342A",
"<. c #A4281E",
"[. c #CF9B97",
"}. c #F9F7F7",
"|. c #D59A95",
"1. c #A41A0E",
"2. c #9F0D00",
"3. c #960C02",
"4. c #8E120A",
"5. c #DDB6B3",
"6. c #B95C56",
"7. c #A9322A",
"8. c #9E170E",
"9. c #990A00",
"0. c #9A1911",
"a. c #CF9A96",
"b. c #B25049",
"c. c #A4241C",
"d. c #DB5341",
"e. c #900902",
"f. c #9B2520",
"g. c #D3A09D",
"h. c #AF4D48",
"i. c #A42F2A",
"j. c #98140E",
"k. c #930700",
"l. c #97150F",
"m. c #D09895",
"n. c #AE4E49",
"o. c #A93F3A",
"p. c #9E221C",
"q. c #8D0500",
"r. c #93120E",
"s. c #99201C",
"t. c #6B0E0E",
"u. c #870200",
"v. c #800000",
"                                                ",
"                . + @ # $ % &                   ",
"            * * = = = = = = = * *               ",
"          * = = - - - - - - - = = *             ",
"        ; > , ' ) ) ) ) ) ' , , ' = *           ",
"      * > ! ~ { ] ^ ^ ^ / ( _ : < / ^ *         ",
"    * = [ } | 1 2 3 4 5 6 7 8 9 0 a b 4 *       ",
"    * = c d 1 | 1 e f g h i 1 j k l m n *       ",
"  * = o o p q 1 | 1 r s t 1 j k u v w o o *     ",
"  * = x x x y z 1 | A B 1 j k C D E F x x *     ",
"  * = G G G G H I A J A 9 0 K L M N G G G *     ",
"  * = O O O P Q R S A | 1 T U V W O O O O *     ",
"  * = X X Y Z `  .1 9 1 | 1 ..+.X X X X X *     ",
"  * = @.#.$.%.&.1 j 0 *.1 | 1 =.-.@.@.@.@.*     ",
"  * = ;.>.,.'.1 j k ).!.~.1 | 9 {.].;.;.;.*     ",
"    * = ^./.9 j k (._.:.<.[.9 }.0 |.1.2.*       ",
"    * = 3.4.0 k 5.6.7.8.9.0.a.0 k b.c.9.*       ",
"      * d.e.f.g.h.i.j.k.k.k.l.m.n.o.p.*         ",
"        * q.r.s.s.r.q.q.q.q.q.r.s.s.t.          ",
"          * u.u.u.u.u.u.u.u.u.u.u.*             ",
"            * * v.v.v.v.v.v.v.* *               ",
"                * * * * * * *                   ",
"                                                ",
"                                                "};

