<?xml version="1.0" encoding="UTF-8" standalone="no"?>
<!-- Created with Inkscape (http://www.inkscape.org/) -->

<svg
   xmlns:dc="http://purl.org/dc/elements/1.1/"
   xmlns:cc="http://creativecommons.org/ns#"
   xmlns:rdf="http://www.w3.org/1999/02/22-rdf-syntax-ns#"
   xmlns:svg="http://www.w3.org/2000/svg"
   xmlns="http://www.w3.org/2000/svg"
   xmlns:sodipodi="http://sodipodi.sourceforge.net/DTD/sodipodi-0.dtd"
   xmlns:inkscape="http://www.inkscape.org/namespaces/inkscape"
   width="32"
   height="32"
   viewBox="0 0 32 32.000001"
   id="svg2"
   version="1.1"
   inkscape:version="0.91 r13725"
   inkscape:export-filename="/home/ling/PKGS/_REPO/kndiswrapper/icons/close.png"
   inkscape:export-xdpi="90"
   inkscape:export-ydpi="90">
  <defs
     id="defs4" />
  <sodipodi:namedview
     id="base"
     pagecolor="#ffffff"
     bordercolor="#666666"
     borderopacity="1.0"
     inkscape:pageopacity="0.0"
     inkscape:pageshadow="2"
     inkscape:zoom="8.6599296"
     inkscape:cx="19.415983"
     inkscape:cy="19.786222"
     inkscape:document-units="px"
     inkscape:current-layer="layer1"
     showgrid="false"
     units="px"
     inkscape:window-width="1017"
     inkscape:window-height="646"
     inkscape:window-x="313"
     inkscape:window-y="64"
     inkscape:window-maximized="0" />
  <metadata
     id="metadata7">
    <rdf:RDF>
      <cc:Work
         rdf:about="">
        <dc:format>image/svg+xml</dc:format>
        <dc:type
           rdf:resource="http://purl.org/dc/dcmitype/StillImage" />
        <dc:title></dc:title>
      </cc:Work>
    </rdf:RDF>
  </metadata>
  <g
     inkscape:label="Layer 1"
     inkscape:groupmode="layer"
     id="layer1"
     transform="translate(0,-1020.3622)">
    <g
       transform="matrix(1.8955793,0,0,1.8955793,-804.0857,18.826706)"
       id="layer1-5"
       inkscape:label="Capa 1"
       inkscape:export-xdpi="90"
       inkscape:export-ydpi="90">
      <circle
         r="6"
         cy="536.79071"
         cx="432.71429"
         id="path4145"
         style="opacity:1;fill:#ffffff;fill-opacity:1;stroke:none" />
      <circle
         id="circle16"
         cx="421.71429"
         cy="-504.57132"
         r="0" />
      <path
         id="path4144"
         d="m 432.71429,528.79074 a 7.9999995,8.0000081 0 0 0 -8,8 7.9999995,8.0000081 0 0 0 8,8 7.9999995,8.0000081 0 0 0 8,-8 7.9999995,8.0000081 0 0 0 -8,-8 z m -3.29297,4 3.29297,3.29297 3.29297,-3.29297 0.70703,0.70703 -3.29297,3.29297 3.29297,3.29297 -0.70703,0.70703 -3.29297,-3.29297 -3.29297,3.29297 -0.70703,-0.70703 3.29297,-3.29297 -3.29297,-3.29297 0.70703,-0.70703 z"
         style="opacity:1;fill:#da4453;fill-opacity:1"
         inkscape:connector-curvature="0" />
    </g>
  </g>
</svg>
