/* XPM */
static const char * wiki_xpm[] = {
"32 32 326 2",
"   c None",
".  c #8C99C9",
"+  c #8B98C8",
"@  c #B0B9DA",
"#  c #7681A9",
"$  c #3994E4",
"%  c #B7BFDD",
"&  c #F8F9FC",
"*  c #8794C2",
"=  c #3994E3",
"-  c #3893E1",
";  c #939FCC",
">  c #FFFFFF",
",  c #4BA0E8",
"'  c #75A2DA",
")  c #8B98C7",
"!  c #DBDFEE",
"~  c #FDFDFE",
"{  c #7A86B0",
"]  c #1D63C3",
"^  c #1B5FBC",
"/  c #3995E5",
"(  c #A4CDF0",
"_  c #8895C3",
":  c #A9B3D7",
"<  c #FEFEFF",
"[  c #FBFBFD",
"}  c #9AA6D0",
"|  c #8893BE",
"1  c #8C9CCB",
"2  c #427ACA",
"3  c #4A89D6",
"4  c #1A60C2",
"5  c #368DD8",
"6  c #82C1F2",
"7  c #98A9D3",
"8  c #808CB8",
"9  c #F1F2F8",
"0  c #FAFAFC",
"a  c #F8F8FB",
"b  c #C6CCE4",
"c  c #ACB6D7",
"d  c #E1E4F0",
"e  c #D1D6E9",
"f  c #8E9DCC",
"g  c #A7CDF2",
"h  c #3575CC",
"i  c #144B9D",
"j  c #B2CDEB",
"k  c #BEC6E1",
"l  c #727DA4",
"m  c #CDD2E7",
"n  c #FEFEFE",
"o  c #F5F5F9",
"p  c #EEF0F7",
"q  c #A0AAD2",
"r  c #F3F3F8",
"s  c #90A2D0",
"t  c #76ACE7",
"u  c #1556B6",
"v  c #3790DF",
"w  c #97CAF3",
"x  c #9EABD3",
"y  c #FCFCFD",
"z  c #F9F9FC",
"A  c #F6F6FA",
"B  c #F7F7FA",
"C  c #DFE1EF",
"D  c #F1F1F6",
"E  c #BBC3DF",
"F  c #9EC8F1",
"G  c #1E5FC0",
"H  c #3286D3",
"I  c #62ABEA",
"J  c #A2B8DD",
"K  c #97A3CA",
"L  c #E9ECF5",
"M  c #F4F4F9",
"N  c #F1F1F7",
"O  c #EFEFF6",
"P  c #B2BADA",
"Q  c #E6E8F2",
"R  c #98B2DD",
"S  c #4C87D4",
"T  c #1049A6",
"U  c #338BDF",
"V  c #A4CAED",
"W  c #8A97C7",
"X  c #F9F9FB",
"Y  c #F0F0F6",
"Z  c #EDEDF4",
"`  c #99A5CF",
" . c #E8E9F2",
".. c #EEEEF5",
"+. c #A0ABD2",
"@. c #8CBDEE",
"#. c #114FB7",
"$. c #3082D3",
"%. c #7BB8ED",
"&. c #9AA9D3",
"*. c #EBEBF3",
"=. c #C9CEE4",
"-. c #ECECF3",
";. c #CCD1E6",
">. c #9FC2EB",
",. c #225EBF",
"'. c #0B3A8C",
"). c #4291DF",
"!. c #ABC6E7",
"~. c #F6F6F9",
"{. c #F2F2F8",
"]. c #ECECF4",
"^. c #E9E9F2",
"/. c #E6E6F0",
"(. c #EDEFF6",
"_. c #A4AED4",
":. c #EAEAF3",
"<. c #E6E6F1",
"[. c #91A5D3",
"}. c #659BDE",
"|. c #0C45AC",
"1. c #2D80D5",
"2. c #90C3EF",
"3. c #A2ACD3",
"4. c #DADEED",
"5. c #F4F4F8",
"6. c #E8E8F1",
"7. c #E5E5EF",
"8. c #EFEFF5",
"9. c #DEDFED",
"0. c #B4BCDB",
"a. c #9AC8F3",
"b. c #0B45B1",
"c. c #2977C9",
"d. c #5A9EE2",
"e. c #9CB1DA",
"f. c #AFB8D9",
"g. c #F2F2F7",
"h. c #E3E3EE",
"i. c #E4E4EF",
"j. c #D4D9EB",
"k. c #B4BBDB",
"l. c #E7E7F1",
"m. c #DBDDEC",
"n. c #97B5E1",
"o. c #447BCD",
"p. c #083998",
"q. c #2A7AD3",
"r. c #9CC1E9",
"s. c #EAEBF4",
"t. c #EDEDF5",
"u. c #E1E1ED",
"v. c #DFDFEC",
"w. c #99A4CF",
"x. c #E5E5F0",
"y. c #7EB2EB",
"z. c #073EAC",
"A. c #2673C9",
"B. c #73AEE8",
"C. c #92A3D0",
"D. c #BFC6E1",
"E. c #C2C8E1",
"F. c #E2E2EE",
"G. c #E0E0EC",
"H. c #CED1E6",
"I. c #C1C7E1",
"J. c #9BC0EB",
"K. c #194FB5",
"L. c #032D83",
"M. c #3982D5",
"N. c #A4BFE4",
"O. c #9EA8D0",
"P. c #D9DDED",
"Q. c #E3E3EF",
"R. c #E2E3EF",
"S. c #93ACDA",
"T. c #5D91D9",
"U. c #0335A1",
"V. c #236FCA",
"W. c #8FBEEB",
"X. c #ADB6D7",
"Y. c #D3D6E8",
"Z. c #E8E8F2",
"`. c #F0F1F7",
" + c #D9DBEA",
".+ c #E0E0ED",
"++ c #B3BBDB",
"@+ c #95C4F3",
"#+ c #0135A6",
"$+ c #2167BE",
"%+ c #5B99DE",
"&+ c #9FB2DA",
"*+ c #D7DBEB",
"=+ c #B9C0DC",
"-+ c #EAEAF2",
";+ c #B8BFDC",
">+ c #CBCFE5",
",+ c #96B7E4",
"'+ c #3C6FC6",
")+ c #002C8F",
"!+ c #206AC9",
"~+ c #9EC0E7",
"{+ c #9FA9CF",
"]+ c #E4E5F0",
"^+ c #E1E4F1",
"/+ c #9FA9D1",
"(+ c #8FA1D0",
"_+ c #77ACE8",
":+ c #0032A4",
"<+ c #1E64C1",
"[+ c #6BA4E2",
"}+ c #99B0DA",
"|+ c #94A0CC",
"1+ c #9DA8D0",
"2+ c #F1F3F8",
"3+ c #C0C6DF",
"4+ c #C8CDE2",
"5+ c #A8B1D4",
"6+ c #D5D7E8",
"7+ c #CED3E7",
"8+ c #98C2EE",
"9+ c #1446AF",
"0+ c #00277F",
"a+ c #1C61C2",
"b+ c #8CBDEC",
"c+ c #9AAAD3",
"d+ c #98A3CD",
"e+ c #AFB8D8",
"f+ c #ECEEF6",
"g+ c #A8B1D2",
"h+ c #E1E1EE",
"i+ c #CCD1E5",
"j+ c #B9BFDB",
"k+ c #C2C8E2",
"l+ c #92AFDD",
"m+ c #588DD7",
"n+ c #002F9B",
"o+ c #2365C4",
"p+ c #98BFEA",
"q+ c #9AA5CE",
"r+ c #A3ADD2",
"s+ c #C6CCE2",
"t+ c #B2BAD6",
"u+ c #D2D4E6",
"v+ c #E9EBF3",
"w+ c #A5AED1",
"x+ c #E6E7F2",
"y+ c #B5BDDC",
"z+ c #93AFDD",
"A+ c #8FBEEF",
"B+ c #4478CC",
"C+ c #1553AE",
"D+ c #3372CA",
"E+ c #A4C0E5",
"F+ c #A5AED2",
"G+ c #BEC5DD",
"H+ c #BCC1DA",
"I+ c #B8BFDA",
"J+ c #DADDEB",
"K+ c #DCDFED",
"L+ c #B3BBDA",
"M+ c #8D9AC9",
"N+ c #8D9DCC",
"O+ c #7EAEE7",
"P+ c #3B6FC6",
"Q+ c #002C90",
"R+ c #1452B2",
"S+ c #4F88D4",
"T+ c #A6B9DC",
"U+ c #A3ADD0",
"V+ c #A0AACD",
"W+ c #A5AECE",
"X+ c #D2D6E7",
"Y+ c #AEB6D4",
"Z+ c #B0B8D6",
"`+ c #99A3CC",
" @ c #9BA6CE",
".@ c #909CCA",
"+@ c #99BFEB",
"@@ c #6394DA",
"#@ c #1E51B5",
"$@ c #0031A1",
"%@ c #002985",
"&@ c #1250B6",
"*@ c #73A5E1",
"=@ c #A6B1D3",
"-@ c #A8B0D1",
";@ c #A7AFCF",
">@ c #A8B0CF",
",@ c #A6AECE",
"'@ c #A7B0D0",
")@ c #9DA7CD",
"!@ c #99A4CC",
"~@ c #98AED8",
"{@ c #88B0E3",
"]@ c #477ACC",
"^@ c #0A3CAA",
"/@ c #002F9A",
"(@ c #002270",
"_@ c #1955BA",
":@ c #8CB5E4",
"<@ c #A4ADCE",
"[@ c #ADB5D2",
"}@ c #ABB3CF",
"|@ c #A9B1CF",
"1@ c #A3BCE0",
"2@ c #7BA9E3",
"3@ c #3467C1",
"4@ c #002B8C",
"5@ c #0C409D",
"6@ c #205ABC",
"7@ c #A0CAF1",
"8@ c #AAD0F3",
"9@ c #A9D0F3",
"0@ c #9FC2E8",
"a@ c #6091D6",
"b@ c #174BB3",
"c@ c #02339F",
"d@ c #012881",
"e@ c #0A3FA2",
"f@ c #0942AF",
"g@ c #0840AD",
"h@ c #063DAB",
"i@ c #053BAA",
"j@ c #043399",
"k@ c #012167",
"                                                                ",
"                                .                               ",
"                              + @ #                             ",
"$                             % & *                             ",
"= -                         ; & > %                             ",
"  , ' ) +                 + ! > ~ ! {         ] ^               ",
"  / ( . . _               : > < [ ~ }   | 1 2 3 4               ",
"  5 6 7 } } 8           ; 9 > ~ 0 a b c d e f g h i             ",
"    , j ; : k l       ) m > n [ a o p q r r ; s t u             ",
"    v w x : b @       : > > y z A r B @ C D E . F G             ",
"    H I J } : & K   ) L > n [ a M N O ! P O Q . R S T           ",
"      U V } : ! L W b > > y X A r Y Z B `  ...+.f @.#.          ",
"      $.%.&.: % > b k > ~ 0 B M N ..*...k =.-.;.. >.,.'.        ",
"        ).!.; : & 9 ; < y X ~.{.O ].^./.(._.:.<.; [.}.|.        ",
"        1.2.} 3.m > @ 4.0 B 5.N ..*.6.7.8.: 9.6.0.. a.b.        ",
"        c.d.e.3.: > ! f.a o g.O ].^./.h.i.j.k.l.m.. n.o.p.      ",
"          q.r.} : L > ; s.r Y t.:.l.i.u.v.o w.x.x.} f y.z.      ",
"          A.B.C.: % > D.E.g.8.].^./.F.G.v.N 3.H.h.I.. J.K.L.    ",
"            M.N.} @ & 9 O.Y Z :.l.i.u.v.h.P.3.Q.F.R.. S.T.U.    ",
"            V.W.; 3.j.> X.Y.*.Z.x.F.v.v.`.+. +F..+v.++. @+#+    ",
"            $+%+&+: : > *+=+-+l.i..+v.*.k ;+Q.u.v.v.>+. ,+'+)+  ",
"              !+~+; 3.j.& {+]+x.F.v.u.^+/+i.F..+v.v.h.} (+_+:+  ",
"              <+[+}+|+1+2+3+4+Q..+v.o 5+6+h.u.v.v.*.7+; } 8+9+0+",
"                a+b+c+d+e+f+g+h+v.^.i+j+i.F.F. .k+} . ; . l+m+n+",
"                  o+p+q+r+s+t+u+u.v+w+.+/.x+y+; ; . . . z+A+B+:+",
"                  C+D+E+F+g+G+H+N I+J+K+L+M+; . . N+,+O+P+:+Q+  ",
"                    R+S+T+U+V+W+X+Y+Z+`+ @.@M+(++@@@#@$@%@      ",
"                      &@*@=@-@;@>@,@'@)@!@~@{@]@^@/@(@          ",
"                        _@:@<@[@}@|@W+1@2@3@:+4@                ",
"                        5@6@7@8@9@0@a@b@c@d@                    ",
"                          e@f@g@h@i@j@k@                        ",
"                                                                "};

